<?xml version="1.0" encoding="UTF-8" standalone="no"?>
<!-- Created with Inkscape (http://www.inkscape.org/) -->

<svg
   version="1.1"
   id="svg1"
   width="746.14801"
   height="746.14801"
   viewBox="0 0 746.14801 746.14801"
   xmlns="http://www.w3.org/2000/svg"
   xmlns:svg="http://www.w3.org/2000/svg">
  <defs
     id="defs1" />
  <g
     id="g1">
    <path
       id="path1"
       d="m 0,0 h 141.7341 70.86705 M 141.7341,0 V 70.86703 M 141.7341,0 v -70.86703 m 0,70.86703 h 70.86705 35.43352 m -35.43352,0 v 35.4335 m 0,-35.4335 V -35.4335 M 141.7341,0 v 70.86703 35.43352 m 0,-35.43352 h -35.43352 m 35.43352,0 h 35.43352 M 141.7341,0 v -70.86703 -35.43352 m 0,35.43352 h 35.43352 m -35.43352,0 H 106.30058 M 141.7341,0 h 70.86705 35.43352 m -35.43352,0 v 35.4335 m 0,-35.4335 v -35.4335 m 0,35.4335 h 35.43352 17.71675 M 248.03467,0 V 17.71674 M 248.03467,0 V -17.71674 M 212.60115,0 v 35.4335 17.71675 m 0,-17.71675 H 194.8844 m 17.71675,0 H 230.3179 M 212.60115,0 v -35.4335 -17.71675 m 0,17.71675 h 17.71675 m -17.71675,0 H 194.8844 M 141.7341,0 v 70.86703 35.43352 m 0,-35.43352 h -35.43352 m 35.43352,0 h 35.43352 m -35.43352,0 v 35.43352 17.71675 m 0,-17.71675 h -17.71675 m 17.71675,0 h 17.71675 M 141.7341,70.86703 H 106.30058 88.58383 m 17.71675,0 V 53.15028 m 0,17.71675 V 88.58379 M 141.7341,70.86703 h 35.43352 17.71675 m -17.71675,0 v 17.71676 m 0,-17.71676 V 53.15028 M 141.7341,0 v -70.86703 -35.43352 m 0,35.43352 h 35.43352 m -35.43352,0 h -35.43352 m 35.43352,0 v -35.43352 -17.71675 m 0,17.71675 h 17.71675 m -17.71675,0 h -17.71675 m 17.71675,35.43352 h 35.43352 17.71675 m -17.71675,0 v 17.71675 m 0,-17.71675 V -88.58379 M 141.7341,-70.86703 H 106.30058 88.58383 m 17.71675,0 v -17.71676 m 0,17.71676 v 17.71675 M 141.7341,0 h 70.86705 35.43352 m -35.43352,0 v 35.4335 m 0,-35.4335 v -35.4335 m 0,35.4335 h 35.43352 17.71675 M 248.03467,0 V 17.71674 M 248.03467,0 V -17.71674 M 212.60115,0 v 35.4335 17.71675 m 0,-17.71675 H 194.8844 m 17.71675,0 H 230.3179 M 212.60115,0 v -35.4335 -17.71675 m 0,17.71675 h 17.71675 m -17.71675,0 H 194.8844 M 212.60115,0 h 35.43352 17.71675 m -17.71675,0 v 17.71674 m 0,-17.71674 v -17.71674 m 0,17.71674 h 17.71675 8.85837 m -8.85837,0 v 8.85837 m 0,-8.85837 V -8.85837 M 248.03467,0 v 17.71674 8.85838 m 0,-8.85838 h -8.85839 m 8.85839,0 h 8.85837 M 248.03467,0 v -17.71674 -8.85838 m 0,8.85838 h 8.85837 m -8.85837,0 h -8.85839 M 212.60115,0 v 35.4335 17.71675 m 0,-17.71675 H 194.8844 m 17.71675,0 h 17.71675 m -17.71675,0 v 17.71675 8.85839 m 0,-8.85839 h -8.85838 m 8.85838,0 h 8.85837 M 212.60115,35.4335 h -17.71675 -8.85837 m 8.85837,0 v -8.85837 m 0,8.85837 v 8.85839 m 17.71675,-8.85839 h 17.71675 8.85837 m -8.85837,0 v 8.85839 m 0,-8.85839 V 26.57513 M 212.60115,0 v -35.4335 -17.71675 m 0,17.71675 h 17.71675 m -17.71675,0 H 194.8844 m 17.71675,0 v -17.71675 -8.85839 m 0,8.85839 h 8.85837 m -8.85837,0 h -8.85838 m 8.85838,17.71675 h 17.71675 8.85837 m -8.85837,0 v 8.85837 m 0,-8.85837 v -8.85839 m -17.71675,8.85839 h -17.71675 -8.85837 m 8.85837,0 v -8.85839 m 0,8.85839 v 8.85837 M 141.7341,0 v 70.86703 35.43352 m 0,-35.43352 h -35.43352 m 35.43352,0 h 35.43352 m -35.43352,0 v 35.43352 17.71675 m 0,-17.71675 h -17.71675 m 17.71675,0 h 17.71675 M 141.7341,70.86703 H 106.30058 88.58383 m 17.71675,0 V 53.15028 m 0,17.71675 V 88.58379 M 141.7341,70.86703 h 35.43352 17.71675 m -17.71675,0 v 17.71676 m 0,-17.71676 V 53.15028 M 141.7341,70.86703 v 35.43352 17.71675 m 0,-17.71675 h -17.71675 m 17.71675,0 h 17.71675 m -17.71675,0 v 17.71675 8.85839 m 0,-8.85839 h -8.85837 m 8.85837,0 h 8.85838 m -8.85838,-17.71675 h -17.71675 -8.85837 m 8.85837,0 v -8.85837 m 0,8.85837 v 8.85839 m 17.71675,-8.85839 h 17.71675 8.85838 m -8.85838,0 v 8.85839 m 0,-8.85839 V 97.44218 M 141.7341,70.86703 H 106.30058 88.58383 m 17.71675,0 V 53.15028 m 0,17.71675 v 17.71676 m 0,-17.71676 H 88.58383 79.72546 m 8.85837,0 v -8.85836 m 0,8.85836 v 8.85839 m 17.71675,-8.85839 V 53.15028 44.29192 m 0,8.85836 h 8.85839 m -8.85839,0 h -8.85837 m 8.85837,17.71675 v 17.71676 8.85838 m 0,-8.85838 h -8.85837 m 8.85837,0 h 8.85839 M 141.7341,70.86703 h 35.43352 17.71675 m -17.71675,0 v 17.71676 m 0,-17.71676 V 53.15028 m 0,17.71675 h 17.71675 8.85837 m -8.85837,0 v 8.85839 m 0,-8.85839 v -8.85836 m -17.71675,8.85836 v 17.71676 8.85838 m 0,-8.85838 h -8.85837 m 8.85837,0 H 186.026 M 177.16762,70.86703 V 53.15028 44.29192 m 0,8.85836 h 8.85838 m -8.85838,0 h -8.85837 M 141.7341,0 v -70.86703 -35.43352 m 0,35.43352 h 35.43352 m -35.43352,0 h -35.43352 m 35.43352,0 v -35.43352 -17.71675 m 0,17.71675 h 17.71675 m -17.71675,0 h -17.71675 m 17.71675,35.43352 h 35.43352 17.71675 m -17.71675,0 v 17.71675 m 0,-17.71675 V -88.58379 M 141.7341,-70.86703 H 106.30058 88.58383 m 17.71675,0 v -17.71676 m 0,17.71676 v 17.71675 m 35.43352,-17.71675 v -35.43352 -17.71675 m 0,17.71675 h 17.71675 m -17.71675,0 h -17.71675 m 17.71675,0 v -17.71675 -8.85839 m 0,8.85839 h 8.85838 m -8.85838,0 h -8.85837 m 8.85837,17.71675 h 17.71675 8.85838 m -8.85838,0 v 8.85837 m 0,-8.85837 v -8.85839 m -17.71675,8.85839 h -17.71675 -8.85837 m 8.85837,0 v -8.85839 m 0,8.85839 v 8.85837 m 17.71675,26.57515 h 35.43352 17.71675 m -17.71675,0 v 17.71675 m 0,-17.71675 v -17.71676 m 0,17.71676 h 17.71675 8.85837 m -8.85837,0 v 8.85836 m 0,-8.85836 v -8.85839 m -17.71675,8.85839 v 17.71675 8.85836 m 0,-8.85836 h -8.85837 m 8.85837,0 h 8.85838 m -8.85838,-17.71675 v -17.71676 -8.85838 m 0,8.85838 h 8.85838 m -8.85838,0 h -8.85837 M 141.7341,-70.86703 H 106.30058 88.58383 m 17.71675,0 v -17.71676 m 0,17.71676 v 17.71675 m 0,-17.71675 H 88.58383 79.72546 m 8.85837,0 v -8.85839 m 0,8.85839 v 8.85836 m 17.71675,-8.85836 v -17.71676 -8.85838 m 0,8.85838 h 8.85839 m -8.85839,0 h -8.85837 m 8.85837,17.71676 v 17.71675 8.85836 m 0,-8.85836 h -8.85837 m 8.85837,0 h 8.85839 M 0,0 v 141.7341 70.86705 M 0,141.7341 H -70.86703 M 0,141.7341 H 70.86703 M 0,141.7341 v 70.86705 35.43352 m 0,-35.43352 h -35.4335 m 35.4335,0 H 35.4335 M 0,141.7341 h -70.86703 -35.43352 m 35.43352,0 v -35.43352 m 0,35.43352 v 35.43352 M 0,141.7341 h 70.86703 35.43352 m -35.43352,0 v 35.43352 m 0,-35.43352 V 106.30058 M 0,141.7341 v 70.86705 35.43352 m 0,-35.43352 h -35.4335 m 35.4335,0 h 35.4335 m -35.4335,0 v 35.43352 17.71675 m 0,-17.71675 h -17.71674 m 17.71674,0 H 17.71674 M 0,212.60115 h -35.4335 -17.71675 m 17.71675,0 V 194.8844 m 0,17.71675 V 230.3179 M 0,212.60115 h 35.4335 17.71675 m -17.71675,0 v 17.71675 m 0,-17.71675 V 194.8844 M 0,141.7341 h -70.86703 -35.43352 m 35.43352,0 v -35.43352 m 0,35.43352 v 35.43352 m 0,-35.43352 h -35.43352 -17.71675 m 17.71675,0 v -17.71675 m 0,17.71675 v 17.71675 M -70.86703,141.7341 V 106.30058 88.58383 m 0,17.71675 h 17.71675 m -17.71675,0 h -17.71676 m 17.71676,35.43352 v 35.43352 17.71675 m 0,-17.71675 h -17.71676 m 17.71676,0 h 17.71675 M 0,141.7341 h 70.86703 35.43352 m -35.43352,0 v 35.43352 m 0,-35.43352 v -35.43352 m 0,35.43352 h 35.43352 17.71675 m -17.71675,0 v 17.71675 m 0,-17.71675 V 124.01735 M 70.86703,141.7341 v 35.43352 17.71675 m 0,-17.71675 H 53.15028 m 17.71675,0 H 88.58379 M 70.86703,141.7341 V 106.30058 88.58383 m 0,17.71675 h 17.71676 m -17.71676,0 H 53.15028 M 0,141.7341 v 70.86705 35.43352 m 0,-35.43352 h -35.4335 m 35.4335,0 h 35.4335 m -35.4335,0 v 35.43352 17.71675 m 0,-17.71675 h -17.71674 m 17.71674,0 H 17.71674 M 0,212.60115 h -35.4335 -17.71675 m 17.71675,0 V 194.8844 m 0,17.71675 V 230.3179 M 0,212.60115 h 35.4335 17.71675 m -17.71675,0 v 17.71675 m 0,-17.71675 V 194.8844 M 0,212.60115 v 35.43352 17.71675 m 0,-17.71675 h -17.71674 m 17.71674,0 h 17.71674 m -17.71674,0 v 17.71675 8.85837 m 0,-8.85837 h -8.85837 m 8.85837,0 H 8.85837 M 0,248.03467 h -17.71674 -8.85838 m 8.85838,0 v -8.85839 m 0,8.85839 v 8.85837 M 0,248.03467 h 17.71674 8.85838 m -8.85838,0 v 8.85837 m 0,-8.85837 v -8.85839 M 0,212.60115 h -35.4335 -17.71675 m 17.71675,0 V 194.8844 m 0,17.71675 v 17.71675 m 0,-17.71675 h -17.71675 -8.85839 m 8.85839,0 v -8.85838 m 0,8.85838 v 8.85837 m 17.71675,-8.85837 v -17.71675 -8.85837 m 0,8.85837 h 8.85837 m -8.85837,0 h -8.85839 m 8.85839,17.71675 v 17.71675 8.85837 m 0,-8.85837 h -8.85839 m 8.85839,0 h 8.85837 M 0,212.60115 h 35.4335 17.71675 m -17.71675,0 v 17.71675 m 0,-17.71675 V 194.8844 m 0,17.71675 h 17.71675 8.85839 m -8.85839,0 v 8.85837 m 0,-8.85837 v -8.85838 m -17.71675,8.85838 v 17.71675 8.85837 m 0,-8.85837 h -8.85837 m 8.85837,0 h 8.85839 M 35.4335,212.60115 v -17.71675 -8.85837 m 0,8.85837 h 8.85839 m -8.85839,0 H 26.57513 M 0,141.7341 h -70.86703 -35.43352 m 35.43352,0 v -35.43352 m 0,35.43352 v 35.43352 m 0,-35.43352 h -35.43352 -17.71675 m 17.71675,0 v -17.71675 m 0,17.71675 v 17.71675 M -70.86703,141.7341 V 106.30058 88.58383 m 0,17.71675 h 17.71675 m -17.71675,0 h -17.71676 m 17.71676,35.43352 v 35.43352 17.71675 m 0,-17.71675 h -17.71676 m 17.71676,0 h 17.71675 M -70.86703,141.7341 h -35.43352 -17.71675 m 17.71675,0 v -17.71675 m 0,17.71675 v 17.71675 m 0,-17.71675 h -17.71675 -8.85839 m 8.85839,0 v -8.85837 m 0,8.85837 v 8.85838 m 17.71675,-8.85838 v -17.71675 -8.85837 m 0,8.85837 h 8.85837 m -8.85837,0 h -8.85839 m 8.85839,17.71675 v 17.71675 8.85838 m 0,-8.85838 h -8.85839 m 8.85839,0 h 8.85837 M -70.86703,141.7341 V 106.30058 88.58383 m 0,17.71675 h 17.71675 m -17.71675,0 h -17.71676 m 17.71676,0 V 88.58383 79.72546 m 0,8.85837 h 8.85836 m -8.85836,0 h -8.85839 m 8.85839,17.71675 h 17.71675 8.85836 m -8.85836,0 v 8.85839 m 0,-8.85839 v -8.85837 m -17.71675,8.85837 h -17.71676 -8.85838 m 8.85838,0 v -8.85837 m 0,8.85837 v 8.85839 m 17.71676,26.57513 v 35.43352 17.71675 m 0,-17.71675 h -17.71676 m 17.71676,0 h 17.71675 m -17.71675,0 v 17.71675 8.85837 m 0,-8.85837 h -8.85839 m 8.85839,0 h 8.85836 m -8.85836,-17.71675 h -17.71676 -8.85838 m 8.85838,0 v -8.85837 m 0,8.85837 v 8.85838 m 17.71676,-8.85838 h 17.71675 8.85836 m -8.85836,0 v 8.85838 m 0,-8.85838 v -8.85837 M 0,141.7341 h 70.86703 35.43352 m -35.43352,0 v 35.43352 m 0,-35.43352 v -35.43352 m 0,35.43352 h 35.43352 17.71675 m -17.71675,0 v 17.71675 m 0,-17.71675 V 124.01735 M 70.86703,141.7341 v 35.43352 17.71675 m 0,-17.71675 H 53.15028 m 17.71675,0 H 88.58379 M 70.86703,141.7341 V 106.30058 88.58383 m 0,17.71675 h 17.71676 m -17.71676,0 H 53.15028 m 17.71675,35.43352 h 35.43352 17.71675 m -17.71675,0 v 17.71675 m 0,-17.71675 v -17.71675 m 0,17.71675 h 17.71675 8.85839 m -8.85839,0 v 8.85838 m 0,-8.85838 v -8.85837 m -17.71675,8.85837 v 17.71675 8.85838 m 0,-8.85838 h -8.85837 m 8.85837,0 h 8.85839 m -8.85839,-17.71675 v -17.71675 -8.85837 m 0,8.85837 h 8.85839 m -8.85839,0 H 97.44218 M 70.86703,141.7341 v 35.43352 17.71675 m 0,-17.71675 H 53.15028 m 17.71675,0 h 17.71676 m -17.71676,0 v 17.71675 8.85837 m 0,-8.85837 h -8.85836 m 8.85836,0 h 8.85839 M 70.86703,177.16762 H 53.15028 44.29192 m 8.85836,0 v -8.85837 m 0,8.85837 v 8.85838 m 17.71675,-8.85838 h 17.71676 8.85838 m -8.85838,0 v 8.85838 m 0,-8.85838 v -8.85837 M 70.86703,141.7341 V 106.30058 88.58383 m 0,17.71675 h 17.71676 m -17.71676,0 H 53.15028 m 17.71675,0 V 88.58383 79.72546 m 0,8.85837 h 8.85839 m -8.85839,0 h -8.85836 m 8.85836,17.71675 h 17.71676 8.85838 m -8.85838,0 v 8.85839 m 0,-8.85839 v -8.85837 m -17.71676,8.85837 H 53.15028 44.29192 m 8.85836,0 v -8.85837 m 0,8.85837 v 8.85839 M 0,0 v -141.7341 -70.86705 m 0,70.86705 h 70.86703 m -70.86703,0 h -70.86703 m 70.86703,0 v -70.86705 -35.43352 m 0,35.43352 h 35.4335 m -35.4335,0 H -35.4335 M 0,-141.7341 h 70.86703 35.43352 m -35.43352,0 v 35.43352 m 0,-35.43352 v -35.43352 M 0,-141.7341 h -70.86703 -35.43352 m 35.43352,0 v -35.43352 m 0,35.43352 v 35.43352 M 0,-141.7341 v -70.86705 -35.43352 m 0,35.43352 h 35.4335 m -35.4335,0 h -35.4335 m 35.4335,0 v -35.43352 -17.71675 m 0,17.71675 h 17.71674 m -17.71674,0 H -17.71674 M 0,-212.60115 h 35.4335 17.71675 m -17.71675,0 v 17.71675 m 0,-17.71675 V -230.3179 M 0,-212.60115 h -35.4335 -17.71675 m 17.71675,0 v -17.71675 m 0,17.71675 v 17.71675 M 0,-141.7341 h 70.86703 35.43352 m -35.43352,0 v 35.43352 m 0,-35.43352 v -35.43352 m 0,35.43352 h 35.43352 17.71675 m -17.71675,0 v 17.71675 m 0,-17.71675 v -17.71675 m -35.43352,17.71675 v 35.43352 17.71675 m 0,-17.71675 H 53.15028 m 17.71675,0 H 88.58379 M 70.86703,-141.7341 v -35.43352 -17.71675 m 0,17.71675 h 17.71676 m -17.71676,0 H 53.15028 M 0,-141.7341 h -70.86703 -35.43352 m 35.43352,0 v -35.43352 m 0,35.43352 v 35.43352 m 0,-35.43352 h -35.43352 -17.71675 m 17.71675,0 v -17.71675 m 0,17.71675 v 17.71675 m 35.43352,-17.71675 v -35.43352 -17.71675 m 0,17.71675 h 17.71675 m -17.71675,0 h -17.71676 m 17.71676,35.43352 v 35.43352 17.71675 m 0,-17.71675 h -17.71676 m 17.71676,0 h 17.71675 M 0,-141.7341 v -70.86705 -35.43352 m 0,35.43352 h 35.4335 m -35.4335,0 h -35.4335 m 35.4335,0 v -35.43352 -17.71675 m 0,17.71675 h 17.71674 m -17.71674,0 H -17.71674 M 0,-212.60115 h 35.4335 17.71675 m -17.71675,0 v 17.71675 m 0,-17.71675 V -230.3179 M 0,-212.60115 h -35.4335 -17.71675 m 17.71675,0 v -17.71675 m 0,17.71675 v 17.71675 M 0,-212.60115 v -35.43352 -17.71675 m 0,17.71675 h 17.71674 m -17.71674,0 h -17.71674 m 17.71674,0 v -17.71675 -8.85837 m 0,8.85837 h 8.85837 m -8.85837,0 H -8.85837 M 0,-248.03467 h 17.71674 8.85838 m -8.85838,0 v 8.85839 m 0,-8.85839 v -8.85837 M 0,-248.03467 h -17.71674 -8.85838 m 8.85838,0 v -8.85837 m 0,8.85837 v 8.85839 M 0,-212.60115 h 35.4335 17.71675 m -17.71675,0 v 17.71675 m 0,-17.71675 v -17.71675 m 0,17.71675 h 17.71675 8.85839 m -8.85839,0 v 8.85838 m 0,-8.85838 v -8.85837 m -17.71675,8.85837 v 17.71675 8.85837 m 0,-8.85837 h -8.85837 m 8.85837,0 h 8.85839 m -8.85839,-17.71675 v -17.71675 -8.85837 m 0,8.85837 h 8.85839 m -8.85839,0 H 26.57513 M 0,-212.60115 h -35.4335 -17.71675 m 17.71675,0 v -17.71675 m 0,17.71675 v 17.71675 m 0,-17.71675 h -17.71675 -8.85839 m 8.85839,0 v -8.85837 m 0,8.85837 v 8.85838 m 17.71675,-8.85838 v -17.71675 -8.85837 m 0,8.85837 h 8.85837 m -8.85837,0 h -8.85839 m 8.85839,17.71675 v 17.71675 8.85837 m 0,-8.85837 h -8.85839 m 8.85839,0 h 8.85837 M 0,-141.7341 h 70.86703 35.43352 m -35.43352,0 v 35.43352 m 0,-35.43352 v -35.43352 m 0,35.43352 h 35.43352 17.71675 m -17.71675,0 v 17.71675 m 0,-17.71675 v -17.71675 m -35.43352,17.71675 v 35.43352 17.71675 m 0,-17.71675 H 53.15028 m 17.71675,0 H 88.58379 M 70.86703,-141.7341 v -35.43352 -17.71675 m 0,17.71675 h 17.71676 m -17.71676,0 H 53.15028 m 17.71675,35.43352 h 35.43352 17.71675 m -17.71675,0 v 17.71675 m 0,-17.71675 v -17.71675 m 0,17.71675 h 17.71675 8.85839 m -8.85839,0 v 8.85837 m 0,-8.85837 v -8.85838 m -17.71675,8.85838 v 17.71675 8.85837 m 0,-8.85837 h -8.85837 m 8.85837,0 h 8.85839 m -8.85839,-17.71675 v -17.71675 -8.85838 m 0,8.85838 h 8.85839 m -8.85839,0 h -8.85837 m -26.57515,17.71675 v 35.43352 17.71675 m 0,-17.71675 H 53.15028 m 17.71675,0 h 17.71676 m -17.71676,0 v 17.71675 8.85837 m 0,-8.85837 h -8.85836 m 8.85836,0 h 8.85839 m -8.85839,-17.71675 H 53.15028 44.29192 m 8.85836,0 v -8.85839 m 0,8.85839 v 8.85837 m 17.71675,-8.85837 h 17.71676 8.85838 m -8.85838,0 v 8.85837 m 0,-8.85837 v -8.85839 M 70.86703,-141.7341 v -35.43352 -17.71675 m 0,17.71675 h 17.71676 m -17.71676,0 H 53.15028 m 17.71675,0 v -17.71675 -8.85837 m 0,8.85837 h 8.85839 m -8.85839,0 h -8.85836 m 8.85836,17.71675 h 17.71676 8.85838 m -8.85838,0 v 8.85837 m 0,-8.85837 v -8.85838 m -17.71676,8.85838 H 53.15028 44.29192 m 8.85836,0 v -8.85838 m 0,8.85838 v 8.85837 M 0,-141.7341 h -70.86703 -35.43352 m 35.43352,0 v -35.43352 m 0,35.43352 v 35.43352 m 0,-35.43352 h -35.43352 -17.71675 m 17.71675,0 v -17.71675 m 0,17.71675 v 17.71675 m 35.43352,-17.71675 v -35.43352 -17.71675 m 0,17.71675 h 17.71675 m -17.71675,0 h -17.71676 m 17.71676,35.43352 v 35.43352 17.71675 m 0,-17.71675 h -17.71676 m 17.71676,0 h 17.71675 m -17.71675,-35.43352 h -35.43352 -17.71675 m 17.71675,0 v -17.71675 m 0,17.71675 v 17.71675 m 0,-17.71675 h -17.71675 -8.85839 m 8.85839,0 v -8.85838 m 0,8.85838 v 8.85837 m 17.71675,-8.85837 v -17.71675 -8.85838 m 0,8.85838 h 8.85837 m -8.85837,0 h -8.85839 m 8.85839,17.71675 v 17.71675 8.85837 m 0,-8.85837 h -8.85839 m 8.85839,0 h 8.85837 m 26.57515,-17.71675 v -35.43352 -17.71675 m 0,17.71675 h 17.71675 m -17.71675,0 h -17.71676 m 17.71676,0 v -17.71675 -8.85837 m 0,8.85837 h 8.85836 m -8.85836,0 h -8.85839 m 8.85839,17.71675 h 17.71675 8.85836 m -8.85836,0 v 8.85837 m 0,-8.85837 v -8.85838 m -17.71675,8.85838 h -17.71676 -8.85838 m 8.85838,0 v -8.85838 m 0,8.85838 v 8.85837 m 17.71676,26.57515 v 35.43352 17.71675 m 0,-17.71675 h -17.71676 m 17.71676,0 h 17.71675 m -17.71675,0 v 17.71675 8.85837 m 0,-8.85837 h -8.85839 m 8.85839,0 h 8.85836 m -8.85836,-17.71675 h -17.71676 -8.85838 m 8.85838,0 v -8.85839 m 0,8.85839 v 8.85837 m 17.71676,-8.85837 h 17.71675 8.85836 m -8.85836,0 v 8.85837 m 0,-8.85837 v -8.85839 M 0,0 h -141.7341 -70.86705 m 70.86705,0 v -70.86703 m 0,70.86703 v 70.86703 m 0,-70.86703 h -70.86705 -35.43352 m 35.43352,0 v -35.4335 m 0,35.4335 V 35.4335 M -141.7341,0 v -70.86703 -35.43352 m 0,35.43352 h 35.43352 m -35.43352,0 h -35.43352 M -141.7341,0 v 70.86703 35.43352 m 0,-35.43352 h -35.43352 m 35.43352,0 h 35.43352 M -141.7341,0 h -70.86705 -35.43352 m 35.43352,0 v -35.4335 m 0,35.4335 v 35.4335 m 0,-35.4335 h -35.43352 -17.71675 m 17.71675,0 v -17.71674 m 0,17.71674 V 17.71674 M -212.60115,0 v -35.4335 -17.71675 m 0,17.71675 h 17.71675 m -17.71675,0 H -230.3179 M -212.60115,0 v 35.4335 17.71675 m 0,-17.71675 h -17.71675 m 17.71675,0 h 17.71675 M -141.7341,0 v -70.86703 -35.43352 m 0,35.43352 h 35.43352 m -35.43352,0 h -35.43352 m 35.43352,0 v -35.43352 -17.71675 m 0,17.71675 h 17.71675 m -17.71675,0 h -17.71675 m 17.71675,35.43352 h 35.43352 17.71675 m -17.71675,0 v 17.71675 m 0,-17.71675 v -17.71676 m -35.43352,17.71676 h -35.43352 -17.71675 m 17.71675,0 v -17.71676 m 0,17.71676 v 17.71675 M -141.7341,0 v 70.86703 35.43352 m 0,-35.43352 h -35.43352 m 35.43352,0 h 35.43352 m -35.43352,0 v 35.43352 17.71675 m 0,-17.71675 h -17.71675 m 17.71675,0 h 17.71675 M -141.7341,70.86703 h -35.43352 -17.71675 m 17.71675,0 V 53.15028 m 0,17.71675 v 17.71676 m 35.43352,-17.71676 h 35.43352 17.71675 m -17.71675,0 v 17.71676 m 0,-17.71676 V 53.15028 M -141.7341,0 h -70.86705 -35.43352 m 35.43352,0 v -35.4335 m 0,35.4335 v 35.4335 m 0,-35.4335 h -35.43352 -17.71675 m 17.71675,0 v -17.71674 m 0,17.71674 V 17.71674 M -212.60115,0 v -35.4335 -17.71675 m 0,17.71675 h 17.71675 m -17.71675,0 H -230.3179 M -212.60115,0 v 35.4335 17.71675 m 0,-17.71675 h -17.71675 m 17.71675,0 h 17.71675 M -212.60115,0 h -35.43352 -17.71675 m 17.71675,0 v -17.71674 m 0,17.71674 v 17.71674 m 0,-17.71674 h -17.71675 -8.85837 m 8.85837,0 v -8.85837 m 0,8.85837 V 8.85837 M -248.03467,0 v -17.71674 -8.85838 m 0,8.85838 h 8.85839 m -8.85839,0 h -8.85837 M -248.03467,0 v 17.71674 8.85838 m 0,-8.85838 h -8.85837 m 8.85837,0 h 8.85839 M -212.60115,0 v -35.4335 -17.71675 m 0,17.71675 h 17.71675 m -17.71675,0 h -17.71675 m 17.71675,0 v -17.71675 -8.85839 m 0,8.85839 h 8.85838 m -8.85838,0 h -8.85837 m 8.85837,17.71675 h 17.71675 8.85837 m -8.85837,0 v 8.85837 m 0,-8.85837 v -8.85839 m -17.71675,8.85839 h -17.71675 -8.85837 m 8.85837,0 v -8.85839 m 0,8.85839 v 8.85837 M -212.60115,0 v 35.4335 17.71675 m 0,-17.71675 h -17.71675 m 17.71675,0 h 17.71675 m -17.71675,0 v 17.71675 8.85839 m 0,-8.85839 h -8.85837 m 8.85837,0 h 8.85838 m -8.85838,-17.71675 h -17.71675 -8.85837 m 8.85837,0 v -8.85837 m 0,8.85837 v 8.85839 m 17.71675,-8.85839 h 17.71675 8.85837 m -8.85837,0 v 8.85839 m 0,-8.85839 V 26.57513 M -141.7341,0 v -70.86703 -35.43352 m 0,35.43352 h 35.43352 m -35.43352,0 h -35.43352 m 35.43352,0 v -35.43352 -17.71675 m 0,17.71675 h 17.71675 m -17.71675,0 h -17.71675 m 17.71675,35.43352 h 35.43352 17.71675 m -17.71675,0 v 17.71675 m 0,-17.71675 v -17.71676 m -35.43352,17.71676 h -35.43352 -17.71675 m 17.71675,0 v -17.71676 m 0,17.71676 v 17.71675 m 35.43352,-17.71675 v -35.43352 -17.71675 m 0,17.71675 h 17.71675 m -17.71675,0 h -17.71675 m 17.71675,0 v -17.71675 -8.85839 m 0,8.85839 h 8.85837 m -8.85837,0 h -8.85838 m 8.85838,17.71675 h 17.71675 8.85837 m -8.85837,0 v 8.85837 m 0,-8.85837 v -8.85839 m -17.71675,8.85839 h -17.71675 -8.85838 m 8.85838,0 v -8.85839 m 0,8.85839 v 8.85837 m 17.71675,26.57515 h 35.43352 17.71675 m -17.71675,0 v 17.71675 m 0,-17.71675 v -17.71676 m 0,17.71676 h 17.71675 8.85837 m -8.85837,0 v 8.85836 m 0,-8.85836 v -8.85839 m -17.71675,8.85839 v 17.71675 8.85836 m 0,-8.85836 h -8.85839 m 8.85839,0 h 8.85837 m -8.85837,-17.71675 v -17.71676 -8.85838 m 0,8.85838 h 8.85837 m -8.85837,0 h -8.85839 m -26.57513,17.71676 h -35.43352 -17.71675 m 17.71675,0 v -17.71676 m 0,17.71676 v 17.71675 m 0,-17.71675 h -17.71675 -8.85837 m 8.85837,0 v -8.85839 m 0,8.85839 v 8.85836 m 17.71675,-8.85836 v -17.71676 -8.85838 m 0,8.85838 h 8.85837 m -8.85837,0 h -8.85838 m 8.85838,17.71676 v 17.71675 8.85836 m 0,-8.85836 h -8.85838 m 8.85838,0 h 8.85837 M -141.7341,0 v 70.86703 35.43352 m 0,-35.43352 h -35.43352 m 35.43352,0 h 35.43352 m -35.43352,0 v 35.43352 17.71675 m 0,-17.71675 h -17.71675 m 17.71675,0 h 17.71675 M -141.7341,70.86703 h -35.43352 -17.71675 m 17.71675,0 V 53.15028 m 0,17.71675 v 17.71676 m 35.43352,-17.71676 h 35.43352 17.71675 m -17.71675,0 v 17.71676 m 0,-17.71676 V 53.15028 m -35.43352,17.71675 v 35.43352 17.71675 m 0,-17.71675 h -17.71675 m 17.71675,0 h 17.71675 m -17.71675,0 v 17.71675 8.85839 m 0,-8.85839 h -8.85838 m 8.85838,0 h 8.85837 m -8.85837,-17.71675 h -17.71675 -8.85838 m 8.85838,0 v -8.85837 m 0,8.85837 v 8.85839 m 17.71675,-8.85839 h 17.71675 8.85837 m -8.85837,0 v 8.85839 m 0,-8.85839 V 97.44218 M -141.7341,70.86703 h -35.43352 -17.71675 m 17.71675,0 V 53.15028 m 0,17.71675 v 17.71676 m 0,-17.71676 h -17.71675 -8.85837 m 8.85837,0 v -8.85836 m 0,8.85836 v 8.85839 m 17.71675,-8.85839 V 53.15028 44.29192 m 0,8.85836 h 8.85837 m -8.85837,0 h -8.85838 m 8.85838,17.71675 v 17.71676 8.85838 m 0,-8.85838 h -8.85838 m 8.85838,0 h 8.85837 m 26.57515,-17.71676 h 35.43352 17.71675 m -17.71675,0 v 17.71676 m 0,-17.71676 V 53.15028 m 0,17.71675 h 17.71675 8.85837 m -8.85837,0 v 8.85839 m 0,-8.85839 v -8.85836 m -17.71675,8.85836 v 17.71676 8.85838 m 0,-8.85838 h -8.85839 m 8.85839,0 h 8.85837 m -8.85837,-17.71676 V 53.15028 44.29192 m 0,8.85836 h 8.85837 m -8.85837,0 h -8.85839"
       style="fill:none;stroke:#000000;stroke-width:0.3985;stroke-linecap:butt;stroke-linejoin:miter;stroke-miterlimit:10;stroke-dasharray:none;stroke-opacity:1"
       transform="matrix(1.3333333,0,0,-1.3333333,373.07333,373.07333)" />
    <path
       id="path2"
       d="M 11.28004,10.93063 H -11.28004 V -10.93063 H 11.28004 Z"
       style="fill:#ffffff;fill-opacity:1;fill-rule:nonzero;stroke:none"
       transform="matrix(1.3333333,0,0,-1.3333333,373.07333,373.07333)" />
    <path
       id="path3"
       d="m 1.8637656,-2.3028711 c 0.2871094,0 1.0253907,-0.017578 1.5234375,-0.2285156 0.6972657,-0.2988281 0.7441407,-0.8847656 0.7441407,-1.0253906 0,-0.4394532 -0.375,-0.84375 -1.0605469,-0.84375 -1.1074219,0 -2.61328127,0.9667968 -2.61328127,2.7070312 0,1.01367188 0.58593747,1.80468751 1.56445317,1.80468751 1.4238281,0 2.2617187,-1.0546875 2.2617187,-1.17773441 0,-0.058594 -0.058594,-0.1289062 -0.1171875,-0.1289062 -0.052734,0 -0.070312,0.017578 -0.1347656,0.099609 -0.7851563,0.98437496 -1.8691406,0.98437496 -1.9921875,0.98437496 -0.7734375,0 -0.8613281,-0.83203125 -0.8613281,-1.15429686 0,-0.1171875 0.00586,-0.4277344 0.1582031,-1.0371094 z m -0.46875,-0.2167969 c 0.3867188,-1.5117187 1.4121094,-1.6640625 1.6757813,-1.6640625 0.4628906,0 0.7324219,0.2871094 0.7324219,0.6269532 0,1.0371093 -1.59375,1.0371093 -1.9980469,1.0371093 z m 0,0"
       style="fill:#000000;fill-opacity:1;fill-rule:nonzero;stroke:none"
       aria-label="e"
       transform="matrix(2.6666667,0,0,2.6666667,366.88933,378.79333)" />
    <path
       id="path4"
       d="M 145.8242,7.72906 H 128.98486 V -7.72903 h 16.83934 z"
       style="fill:#ffffff;fill-opacity:1;fill-rule:nonzero;stroke:none"
       transform="matrix(1.3333333,0,0,-1.3333333,373.07333,373.07333)" />
    <path
       id="path5"
       d="M 3.7119043,-3.7628496 C 3.537888,-4.1357415 3.247861,-4.4009091 2.8003907,-4.4009091 c -1.1683947,0 -2.40308127,1.4584217 -2.40308127,2.9168435 0,0.936373 0.54690815,1.59100548 1.32583797,1.59100548 0.1988757,0 0.6960649,-0.04143244 1.2926919,-0.74578384 0.082865,0.42261084 0.4308974,0.74578384 0.9115136,0.74578384 0.3480325,0 0.5717676,-0.22373515 0.7374974,-0.54690815 0.1657297,-0.35631894 0.2983135,-0.96123253 0.2983135,-0.98609193 0,-0.099438 -0.091151,-0.099438 -0.1242973,-0.099438 -0.099438,0 -0.1077243,0.041432 -0.1408703,0.1823027 -0.1657297,0.64634603 -0.3480324,1.23468661 -0.7540703,1.23468661 -0.2651676,0 -0.2983135,-0.25688109 -0.2983135,-0.46404327 0,-0.21544866 0.016573,-0.29831354 0.1325838,-0.72921084 0.1077243,-0.4226109 0.1242973,-0.5220487 0.2154486,-0.9032271 l 0.356319,-1.3921298 c 0.074578,-0.2817406 0.074578,-0.2983136 0.074578,-0.339746 0,-0.1657297 -0.1242973,-0.2651676 -0.290027,-0.2651676 -0.2403081,0 -0.3894649,0.2154487 -0.4226105,0.4391839 z m -0.646346,2.5770975 c -0.049719,0.1823027 -0.049719,0.19887569 -0.1988757,0.36460543 -0.4391838,0.55519463 -0.8452217,0.71263788 -1.1269623,0.71263788 -0.4971892,0 -0.6380595,-0.54690814 -0.6380595,-0.93637301 0,-0.4971892 0.323173,-1.7235893 0.5551947,-2.1793461 0.3066,-0.5883406 0.7540703,-0.9612325 1.1518217,-0.9612325 0.646346,0 0.7872162,0.8203622 0.7872162,0.8783676 0,0.058005 -0.016573,0.1160108 -0.033146,0.1657298 z m 0,0"
       style="fill:#000000;fill-opacity:1;fill-rule:nonzero;stroke:none"
       aria-label="a"
       transform="matrix(1.8856,0,0,1.8856,551.31333,377.11867)" />
    <path
       id="path6"
       d="m 152.92313,-60.18588 h -31.03722 v -17.0327 h 31.03722 z"
       style="fill:#ffffff;fill-opacity:1;fill-rule:nonzero;stroke:none"
       transform="matrix(1.3333333,0,0,-1.3333333,373.07333,373.07333)" />
    <g
       id="g6"
       aria-label="ab&#10;−1"
       transform="matrix(1.5396,0,0,1.5396,540.69867,470.91867)">
      <path
         id="path7"
         d="m 3.7147974,-3.7656358 c -0.1725286,-0.3755034 -0.466842,-0.6393706 -0.9133866,-0.6393706 -1.1671051,0 -2.40525135,1.4614185 -2.40525135,2.9228371 0,0.93368403 0.54803195,1.59335213 1.32948495,1.59335213 0.2029748,0 0.700263,-0.04059496 1.2990387,-0.75100676 0.071041,0.41609834 0.4262471,0.75100676 0.9032378,0.75100676 0.3450572,0 0.5784782,-0.23342102 0.7408581,-0.54803196 0.1623798,-0.36535464 0.2943134,-0.96413027 0.2943134,-0.98442777 0,-0.1014874 -0.091339,-0.1014874 -0.1217849,-0.1014874 -0.1014874,0 -0.1116361,0.040595 -0.1319336,0.1725286 -0.1725286,0.64951933 -0.3552059,1.23814625 -0.7611555,1.23814625 -0.274016,0 -0.3044622,-0.2537185 -0.3044622,-0.4566933 0,-0.22327228 0.020298,-0.29431345 0.1319336,-0.74085805 0.1116362,-0.4160983 0.1319337,-0.5175857 0.2232723,-0.8930891 L 4.354168,-3.603256 c 0.071041,-0.274016 0.071041,-0.2943134 0.071041,-0.3349084 0,-0.1725286 -0.1217849,-0.2638672 -0.2841647,-0.2638672 -0.2435698,0 -0.3958009,0.2131235 -0.4262469,0.4363958 z M 3.065278,-1.1878559 c -0.040595,0.1826773 -0.040595,0.20297482 -0.192826,0.36535466 -0.4363958,0.54803195 -0.8524942,0.71041179 -1.1265101,0.71041179 -0.4972883,0 -0.6393707,-0.54803196 -0.6393707,-0.93368405 0,-0.4972883 0.314611,-1.7252858 0.548032,-2.1819791 0.3044622,-0.5886269 0.7611555,-0.9539816 1.1569564,-0.9539816 0.6495193,0 0.7916017,0.8118992 0.7916017,0.8727917 0,0.060892 -0.020297,0.1217849 -0.030446,0.1725286 z m 4.5846933,-5.6224019 c 0,-0.010149 0,-0.1116361 -0.1319336,-0.1116361 -0.233421,0 -0.9539816,0.08119 -1.2178488,0.1014874 -0.08119,0.010149 -0.1928261,0.020297 -0.1928261,0.2029748 0,0.1217848 0.091339,0.1217848 0.2435698,0.1217848 0.4769908,0 0.4972883,0.071041 0.4972883,0.1623799 0,0.071041 -0.091339,0.4160983 -0.1420824,0.6190731 l -0.8118992,3.2475968 c -0.1217849,0.507437 -0.1623798,0.6596681 -0.1623798,1.014874 0,0.94383279 0.5277344,1.56290593 1.2685925,1.56290593 1.1772538,0 2.4052513,-1.49186473 2.4052513,-2.92283713 0,-0.9032378 -0.5378832,-1.5933521 -1.3294849,-1.5933521 -0.4566933,0 -0.8727916,0.2841647 -1.1671051,0.5987756 z m -0.9438328,3.7651825 c 0.060892,-0.2131235 0.060892,-0.233421 0.1522311,-0.3450571 0.4871395,-0.6495194 0.9336841,-0.7916018 1.1975513,-0.7916018 0.3552059,0 0.6292219,0.2943135 0.6292219,0.9336841 0,0.5886269 -0.3349084,1.7354345 -0.507437,2.1109379 -0.3349084,0.66981685 -0.7916017,1.02502275 -1.1772538,1.02502275 -0.3450572,0 -0.6698169,-0.26386724 -0.6698169,-1.00472525 0,-0.1928261 0,-0.3755034 0.1623799,-1.0047253 z m 0,0"
         style="fill:#000000;fill-opacity:1;fill-rule:nonzero;stroke:none" />
      <path
         id="path8"
         d="m 14.728717,-5.1889966 c 0.111637,0 0.284165,0 0.284165,-0.1725286 0,-0.1725286 -0.16238,-0.1725286 -0.284165,-0.1725286 h -4.150834 c -0.111636,0 -0.284165,0 -0.284165,0.1725286 0,0.1725286 0.16238,0.1725286 0.284165,0.1725286 z m 0,0"
         style="fill:#000000;fill-opacity:1;fill-rule:nonzero;stroke:none" />
      <path
         id="path9"
         d="m 18.103173,-8.0509413 c 0,-0.1826773 -0.01015,-0.192826 -0.202974,-0.192826 -0.446545,0.4363958 -1.085916,0.4465445 -1.37008,0.4465445 v 0.2537185 c 0.16238,0 0.629222,0 1.004725,-0.2029748 v 3.5622078 c 0,0.2232722 0,0.3146109 -0.690114,0.3146109 h -0.263868 v 0.2537185 c 0.121785,-0.010149 0.984428,-0.030446 1.238147,-0.030446 0.213123,0 1.096064,0.020297 1.248295,0.030446 v -0.2537185 h -0.263868 c -0.700263,0 -0.700263,-0.091339 -0.700263,-0.3146109 z m 0,0"
         style="fill:#000000;fill-opacity:1;fill-rule:nonzero;stroke:none" />
    </g>
    <path
       id="path10"
       d="M 215.56184,8.51636 H 196.65172 V -8.51633 h 18.91012 z"
       style="fill:#ffffff;fill-opacity:1;fill-rule:nonzero;stroke:none"
       transform="matrix(1.3333333,0,0,-1.3333333,373.07333,373.07333)" />
    <g
       id="g10"
       aria-label="a&#10;2"
       transform="matrix(1.5396,0,0,1.5396,640.38533,379.31733)">
      <path
         id="path11"
         d="M 3.7153387,-3.7657847 C 3.5428101,-4.1412881 3.2484966,-4.4051553 2.8019521,-4.4051553 c -1.1671051,0 -2.40525139,1.4614186 -2.40525139,2.9228371 0,0.93368409 0.54803196,1.59335218 1.32948489,1.59335218 0.2029748,0 0.7002631,-0.04059496 1.2990388,-0.75100675 0.071041,0.41609833 0.426247,0.75100675 0.9032378,0.75100675 0.3450572,0 0.5784782,-0.23342102 0.740858,-0.54803196 0.1623799,-0.36535463 0.2943135,-0.96413032 0.2943135,-0.98442772 0,-0.1014874 -0.091339,-0.1014874 -0.1217849,-0.1014874 -0.1014874,0 -0.1116361,0.040595 -0.1319336,0.1725285 -0.1725286,0.64951939 -0.3552059,1.2381463 -0.7611555,1.2381463 -0.274016,0 -0.3044622,-0.2537185 -0.3044622,-0.45669329 0,-0.22327228 0.020297,-0.29431346 0.1319336,-0.74085801 0.1116361,-0.4160983 0.1319336,-0.5175857 0.2232723,-0.8930891 l 0.3552059,-1.4005261 c 0.071041,-0.274016 0.071041,-0.2943135 0.071041,-0.3349085 0,-0.1725285 -0.1217849,-0.2638672 -0.2841648,-0.2638672 -0.2435697,0 -0.3958008,0.2131235 -0.4262468,0.4363958 z m -0.6495194,2.57778 c -0.040595,0.1826773 -0.040595,0.20297477 -0.192826,0.36535461 -0.4363959,0.54803195 -0.8524942,0.71041179 -1.1265102,0.71041179 -0.4972882,0 -0.6393706,-0.54803195 -0.6393706,-0.9336841 0,-0.4972882 0.3146109,-1.7252858 0.548032,-2.1819791 C 1.9596067,-3.8165284 2.4163,-4.181883 2.8121008,-4.181883 c 0.6495194,0 0.7916017,0.8118992 0.7916017,0.8727916 0,0.060893 -0.020297,0.1217849 -0.030446,0.1725286 z m 0,0"
         style="fill:#000000;fill-opacity:1;fill-rule:nonzero;stroke:none" />
      <path
         id="path12"
         d="M 8.7871715,-4.8846833 H 8.5537504 c -0.020297,0.1522311 -0.091339,0.5683295 -0.1826773,0.6292219 -0.060892,0.050744 -0.5987756,0.050744 -0.6901143,0.050744 h -1.28889 c 0.7307093,-0.6495193 0.9742791,-0.8524941 1.4005261,-1.1772538 0.5175858,-0.4059496 0.9945766,-0.8423454 0.9945766,-1.5020135 0,-0.8423454 -0.7408581,-1.3599312 -1.6339472,-1.3599312 -0.8626429,0 -1.4512698,0.6089244 -1.4512698,1.248295 0,0.3552059 0.3044622,0.3856522 0.3755034,0.3856522 0.1623798,0 0.3653546,-0.1116362 0.3653546,-0.3653547 0,-0.1217849 -0.050744,-0.3755034 -0.4059496,-0.3755034 0.2131236,-0.4871395 0.6901143,-0.6393706 1.014874,-0.6393706 0.7002631,0 1.055469,0.5378832 1.055469,1.1062127 0,0.6089244 -0.4262471,1.0859152 -0.6495194,1.3396337 l -1.6846908,1.6542446 c -0.071041,0.060892 -0.071041,0.08119 -0.071041,0.2740159 h 2.8720934 z m 0,0"
         style="fill:#000000;fill-opacity:1;fill-rule:nonzero;stroke:none" />
    </g>
    <path
       id="path13"
       d="m 146.74773,76.5309 h -18.6864 V 60.87361 h 18.6864 z"
       style="fill:#ffffff;fill-opacity:1;fill-rule:nonzero;stroke:none"
       transform="matrix(1.3333333,0,0,-1.3333333,373.07333,373.07333)" />
    <path
       id="path14"
       d="M 3.715474,-3.7654802 C 3.5429454,-4.1409836 3.2486319,-4.4048508 2.8020874,-4.4048508 c -1.1671051,0 -2.40525137,1.4614185 -2.40525137,2.9228371 0,0.93368405 0.54803196,1.59335214 1.32948497,1.59335214 0.2029748,0 0.700263,-0.04059496 1.2990387,-0.75100675 0.071041,0.41609834 0.426247,0.75100675 0.9032378,0.75100675 0.3450572,0 0.5784782,-0.23342102 0.740858,-0.54803195 0.1623799,-0.36535464 0.2943135,-0.96413029 0.2943135,-0.98442779 0,-0.1014874 -0.091339,-0.1014874 -0.1217849,-0.1014874 -0.1014874,0 -0.1116361,0.040595 -0.1319336,0.1725286 -0.1725286,0.64951935 -0.3552059,1.23814626 -0.7611555,1.23814626 -0.274016,0 -0.3044622,-0.25371849 -0.3044622,-0.45669329 0,-0.22327228 0.020297,-0.29431346 0.1319336,-0.74085797 C 3.8880026,-1.7255835 3.9083,-1.8270709 3.9996387,-2.2025743 l 0.3552059,-1.4005261 c 0.071041,-0.274016 0.071041,-0.2943134 0.071041,-0.3349084 0,-0.1725286 -0.1217849,-0.2638672 -0.2841647,-0.2638672 -0.2435698,0 -0.3958009,0.2131235 -0.4262469,0.4363958 z m -0.6495194,2.5777799 c -0.040595,0.1826774 -0.040595,0.20297483 -0.192826,0.36535467 -0.4363958,0.54803196 -0.8524942,0.71041179 -1.1265102,0.71041179 -0.4972882,0 -0.6393706,-0.54803195 -0.6393706,-0.93368406 0,-0.4972883 0.314611,-1.7252858 0.548032,-2.1819791 0.3044622,-0.5886269 0.7611555,-0.9539815 1.1569563,-0.9539815 0.6495194,0 0.7916017,0.8118991 0.7916017,0.8727916 0,0.060892 -0.020297,0.1217849 -0.030446,0.1725286 z m 4.5846933,-5.6224019 c 0,-0.010149 0,-0.1116361 -0.1319336,-0.1116361 -0.233421,0 -0.9539816,0.08119 -1.2178488,0.1014874 -0.08119,0.010149 -0.1928261,0.020297 -0.1928261,0.2029748 0,0.1217848 0.091339,0.1217848 0.2435698,0.1217848 0.4769908,0 0.4972882,0.071041 0.4972882,0.1623799 0,0.071041 -0.091339,0.4160983 -0.1420823,0.6190731 l -0.8118992,3.2475968 c -0.1217849,0.507437 -0.1623799,0.6596681 -0.1623799,1.014874 0,0.94383281 0.5277345,1.56290594 1.2685925,1.56290594 1.1772539,0 2.4052514,-1.49186474 2.4052514,-2.92283714 0,-0.9032378 -0.5378832,-1.5933521 -1.3294849,-1.5933521 -0.4566933,0 -0.8727917,0.2841647 -1.1671051,0.5987756 z m -0.9438328,3.7651825 c 0.060892,-0.2131235 0.060892,-0.233421 0.1522311,-0.3450571 0.4871395,-0.6495194 0.9336841,-0.7916017 1.1975513,-0.7916017 0.3552059,0 0.6292219,0.2943134 0.6292219,0.933684 0,0.5886269 -0.3349084,1.7354346 -0.507437,2.1109379 -0.3349084,0.66981687 -0.7916017,1.02502276 -1.1772539,1.02502276 -0.3450571,0 -0.6698168,-0.26386723 -0.6698168,-1.00472526 0,-0.192826 0,-0.3755034 0.1623798,-1.0047252 z m 0,0"
       style="fill:#000000;fill-opacity:1;fill-rule:nonzero;stroke:none"
       aria-label="ab"
       transform="matrix(1.5396,0,0,1.5396,548.932,286.79733)" />
    <path
       id="path15"
       d="M 7.71927,146.99258 H -7.71925 V 127.81647 H 7.71927 Z"
       style="fill:#ffffff;fill-opacity:1;fill-rule:nonzero;stroke:none"
       transform="matrix(1.3333333,0,0,-1.3333333,373.07333,373.07333)" />
    <path
       id="path16"
       d="m 2.378382,-6.8039351 c 0,-0.00829 0,-0.1077243 -0.1242973,-0.1077243 -0.2320217,0 -0.9612325,0.074578 -1.2181136,0.099438 -0.0828649,0.00829 -0.19058921,0.016573 -0.19058921,0.1988757 0,0.1160108 0.0911514,0.1160108 0.24030811,0.1160108 0.4806163,0 0.4971892,0.074578 0.4971892,0.1740163 0,0.066292 -0.091151,0.4060378 -0.1408702,0.6132 l -0.81207578,3.2483029 c -0.1242973,0.4971893 -0.16572974,0.6546325 -0.16572974,1.0109515 0,0.94465948 0.53033517,1.55785952 1.26783252,1.55785952 1.1766812,0 2.4030812,-1.48328122 2.4030812,-2.91684342 0,-0.9032271 -0.5303351,-1.5910055 -1.3258379,-1.5910055 -0.4557568,0 -0.8700811,0.290027 -1.1683947,0.596627 z M 1.442009,-3.04187 c 0.066292,-0.2154486 0.066292,-0.2320216 0.1491567,-0.3480324 0.4889028,-0.646346 0.9363731,-0.7955028 1.2015406,-0.7955028 0.356319,0 0.6214866,0.2983136 0.6214866,0.9363731 0,0.5883405 -0.323173,1.7318758 -0.5054757,2.1130542 -0.3314595,0.67120541 -0.7872163,1.02752436 -1.1766812,1.02752436 -0.339746,0 -0.662919,-0.27345408 -0.662919,-1.01095146 0,-0.1823027 0,-0.3728919 0.1574433,-1.0026649 z m 0,0"
       style="fill:#000000;fill-opacity:1;fill-rule:nonzero;stroke:none"
       aria-label="b"
       transform="matrix(1.8856,0,0,1.8856,369.04267,196.392)" />
    <path
       id="path17"
       d="M 78.04546,145.23317 H 59.35905 v -15.65729 h 18.68641 z"
       style="fill:#ffffff;fill-opacity:1;fill-rule:nonzero;stroke:none"
       transform="matrix(1.3333333,0,0,-1.3333333,373.07333,373.07333)" />
    <path
       id="path18"
       d="m 2.3858402,-6.809385 c 0,-0.010149 0,-0.1116362 -0.1319336,-0.1116362 -0.233421,0 -0.9539816,0.08119 -1.2178488,0.1014874 -0.0811899,0.010149 -0.19282606,0.020298 -0.19282606,0.2029748 0,0.1217849 0.0913387,0.1217849 0.24356976,0.1217849 0.4769908,0 0.4972883,0.071041 0.4972883,0.1623799 0,0.071041 -0.091339,0.4160983 -0.1420824,0.6190731 l -0.8118992,3.2475968 c -0.12178488,0.507437 -0.16237984,0.6596681 -0.16237984,1.014874 0,0.94383278 0.52773448,1.56290592 1.26859254,1.56290592 1.1772538,0 2.4052513,-1.49186472 2.4052513,-2.92283712 0,-0.9032378 -0.5378832,-1.5933521 -1.3294849,-1.5933521 -0.4566933,0 -0.8727916,0.2841647 -1.1671051,0.5987756 z m -0.9438328,3.7651825 c 0.060892,-0.2131235 0.060892,-0.233421 0.1522311,-0.3450572 0.4871395,-0.6495193 0.9336841,-0.7916017 1.1975513,-0.7916017 0.3552059,0 0.6292219,0.2943135 0.6292219,0.9336841 0,0.5886269 -0.3349084,1.7354345 -0.507437,2.1109379 -0.3349084,0.66981684 -0.7916017,1.02502274 -1.1772538,1.02502274 -0.3450572,0 -0.6698169,-0.26386724 -0.6698169,-1.00472524 0,-0.1928261 0,-0.3755034 0.1623799,-1.0047253 z M 7.9904818,-3.764763 c -0.1725285,-0.3755034 -0.466842,-0.6393706 -0.9133866,-0.6393706 -1.1671051,0 -2.4052513,1.4614185 -2.4052513,2.9228371 0,0.93368402 0.5480319,1.59335212 1.3294849,1.59335212 0.2029748,0 0.7002631,-0.04059496 1.2990387,-0.75100675 0.071041,0.41609833 0.4262471,0.75100675 0.9032379,0.75100675 0.3450571,0 0.5784781,-0.23342102 0.740858,-0.54803196 0.1623798,-0.36535463 0.2943134,-0.96413026 0.2943134,-0.98442776 0,-0.1014874 -0.091339,-0.1014874 -0.1217848,-0.1014874 -0.1014874,0 -0.1116362,0.040595 -0.1319337,0.1725286 -0.1725285,0.64951933 -0.3552058,1.23814624 -0.7611554,1.23814624 -0.274016,0 -0.3044622,-0.2537185 -0.3044622,-0.45669329 0,-0.22327228 0.020297,-0.29431346 0.1319336,-0.74085805 0.1116361,-0.4160983 0.1319336,-0.5175857 0.2232723,-0.8930891 l 0.3552059,-1.4005261 c 0.071041,-0.274016 0.071041,-0.2943135 0.071041,-0.3349084 0,-0.1725286 -0.1217848,-0.2638673 -0.2841647,-0.2638673 -0.2435697,0 -0.3958008,0.2131236 -0.426247,0.4363959 z m -0.6495193,2.5777799 c -0.040595,0.1826773 -0.040595,0.20297481 -0.1928261,0.36535465 -0.4363958,0.54803195 -0.8524941,0.71041179 -1.1265101,0.71041179 -0.4972883,0 -0.6393706,-0.54803195 -0.6393706,-0.93368404 0,-0.4972883 0.3146109,-1.7252858 0.5480319,-2.1819791 0.3044622,-0.5886269 0.7611555,-0.9539816 1.1569564,-0.9539816 0.6495193,0 0.7916017,0.8118992 0.7916017,0.8727917 0,0.060892 -0.020297,0.1217848 -0.030446,0.1725285 z m 0,0"
       style="fill:#000000;fill-opacity:1;fill-rule:nonzero;stroke:none"
       aria-label="ba"
       transform="matrix(1.5396,0,0,1.5396,457.33067,195.19467)" />
    <path
       id="path19"
       d="M 8.88318,214.62314 H -8.88316 v -17.0327 H 8.88318 Z"
       style="fill:#ffffff;fill-opacity:1;fill-rule:nonzero;stroke:none"
       transform="matrix(1.3333333,0,0,-1.3333333,373.07333,373.07333)" />
    <g
       id="g19"
       aria-label="b&#10;2"
       transform="matrix(1.5396,0,0,1.5396,366.34267,104.50933)">
      <path
         id="path20"
         d="m 2.3856575,-6.8107923 c 0,-0.010149 0,-0.1116361 -0.1319336,-0.1116361 -0.233421,0 -0.9539815,0.08119 -1.2178488,0.1014874 -0.0811899,0.010149 -0.19282604,0.020297 -0.19282604,0.2029748 0,0.1217848 0.0913387,0.1217848 0.24356974,0.1217848 0.4769908,0 0.4972883,0.071041 0.4972883,0.1623799 0,0.071041 -0.091339,0.4160983 -0.1420824,0.6190731 l -0.81189918,3.2475968 c -0.12178488,0.507437 -0.16237984,0.6596681 -0.16237984,1.014874 0,0.94383279 0.52773448,1.56290593 1.26859252,1.56290593 1.1772538,0 2.4052513,-1.49186473 2.4052513,-2.92283713 0,-0.9032378 -0.5378832,-1.5933521 -1.3294849,-1.5933521 -0.4566933,0 -0.8727916,0.2841647 -1.1671051,0.5987756 z m -0.9438328,3.7651825 c 0.060893,-0.2131235 0.060893,-0.233421 0.1522311,-0.3450571 0.4871395,-0.6495194 0.9336841,-0.7916018 1.1975513,-0.7916018 0.3552059,0 0.6292219,0.2943135 0.6292219,0.9336841 0,0.5886269 -0.3349084,1.7354345 -0.507437,2.1109379 -0.3349084,0.66981685 -0.7916017,1.02502275 -1.1772538,1.02502275 -0.3450572,0 -0.6698169,-0.26386724 -0.6698169,-1.00472525 0,-0.1928261 0,-0.3755034 0.1623799,-1.0047253 z m 0,0"
         style="fill:#000000;fill-opacity:1;fill-rule:nonzero;stroke:none" />
      <path
         id="path21"
         d="m 7.7974731,-4.8825317 h -0.233421 c -0.020297,0.1522311 -0.091339,0.5683294 -0.1826773,0.6292219 -0.060892,0.050744 -0.5987757,0.050744 -0.6901144,0.050744 H 5.4023705 c 0.7307093,-0.6495194 0.974279,-0.8524942 1.4005261,-1.1772539 0.5175857,-0.4059496 0.9945765,-0.8423454 0.9945765,-1.5020135 0,-0.8423454 -0.740858,-1.3599311 -1.6339471,-1.3599311 -0.8626429,0 -1.4512698,0.6089244 -1.4512698,1.248295 0,0.3552059 0.3044622,0.3856521 0.3755033,0.3856521 0.1623799,0 0.3653547,-0.1116361 0.3653547,-0.3653546 0,-0.1217849 -0.050744,-0.3755034 -0.4059496,-0.3755034 0.2131235,-0.4871395 0.6901143,-0.6393706 1.014874,-0.6393706 0.700263,0 1.0554689,0.5378832 1.0554689,1.1062126 0,0.6089244 -0.4262471,1.0859152 -0.6495193,1.3396337 l -1.6846909,1.6542446 c -0.071041,0.060892 -0.071041,0.08119 -0.071041,0.274016 h 2.8720934 z m 0,0"
         style="fill:#000000;fill-opacity:1;fill-rule:nonzero;stroke:none" />
    </g>
    <path
       id="path22"
       d="m -53.18364,145.92088 h -31.03722 v -17.0327 h 31.03722 z"
       style="fill:#ffffff;fill-opacity:1;fill-rule:nonzero;stroke:none"
       transform="matrix(1.3333333,0,0,-1.3333333,373.07333,373.07333)" />
    <g
       id="g22"
       aria-label="ba&#10;−1"
       transform="matrix(1.5396,0,0,1.5396,265.89333,196.112)">
      <path
         id="path23"
         d="m 2.385732,-6.8089723 c 0,-0.010149 0,-0.1116361 -0.1319337,-0.1116361 -0.233421,0 -0.9539815,0.08119 -1.2178488,0.1014874 -0.0811899,0.010149 -0.19282602,0.020297 -0.19282602,0.2029748 0,0.1217848 0.0913387,0.1217848 0.24356972,0.1217848 0.4769908,0 0.4972883,0.071041 0.4972883,0.1623799 0,0.071041 -0.091339,0.4160983 -0.1420824,0.6190731 l -0.81189915,3.2475968 c -0.12178488,0.507437 -0.16237984,0.6596681 -0.16237984,1.014874 0,0.9438328 0.52773447,1.56290594 1.26859249,1.56290594 1.1772538,0 2.4052514,-1.49186474 2.4052514,-2.92283714 0,-0.9032378 -0.5378833,-1.5933521 -1.329485,-1.5933521 -0.4566933,0 -0.8727916,0.2841647 -1.1671051,0.5987756 z m -0.9438329,3.7651825 c 0.060892,-0.2131235 0.060892,-0.233421 0.1522311,-0.3450571 0.4871396,-0.6495194 0.9336841,-0.7916018 1.1975514,-0.7916018 0.3552058,0 0.6292218,0.2943135 0.6292218,0.9336841 0,0.5886269 -0.3349084,1.7354345 -0.507437,2.1109379 -0.3349084,0.66981686 -0.7916017,1.02502276 -1.1772538,1.02502276 -0.3450572,0 -0.6698168,-0.26386724 -0.6698168,-1.00472526 0,-0.1928261 0,-0.3755034 0.1623798,-1.0047252 z M 7.9903736,-3.7643503 C 7.817845,-4.1398537 7.5235315,-4.4037209 7.076987,-4.4037209 c -1.1671051,0 -2.4052514,1.4614185 -2.4052514,2.9228371 0,0.93368404 0.548032,1.59335214 1.329485,1.59335214 0.2029748,0 0.700263,-0.04059496 1.2990387,-0.75100676 0.071041,0.41609834 0.426247,0.75100676 0.9032378,0.75100676 0.3450572,0 0.5784782,-0.23342102 0.740858,-0.54803196 0.1623799,-0.36535464 0.2943135,-0.96413028 0.2943135,-0.98442778 0,-0.1014874 -0.091339,-0.1014874 -0.1217849,-0.1014874 -0.1014874,0 -0.1116361,0.040595 -0.1319336,0.1725286 -0.1725286,0.64951934 -0.3552059,1.23814626 -0.7611555,1.23814626 -0.274016,0 -0.3044622,-0.2537185 -0.3044622,-0.4566933 0,-0.22327228 0.020297,-0.29431346 0.1319336,-0.74085806 0.1116362,-0.4160983 0.1319336,-0.5175857 0.2232723,-0.8930891 l 0.3552059,-1.4005261 c 0.071041,-0.274016 0.071041,-0.2943134 0.071041,-0.3349084 0,-0.1725286 -0.1217849,-0.2638672 -0.2841647,-0.2638672 -0.2435698,0 -0.3958009,0.2131235 -0.4262469,0.4363958 z m -0.6495194,2.5777799 c -0.040595,0.1826773 -0.040595,0.20297482 -0.192826,0.36535466 -0.4363958,0.54803196 -0.8524942,0.7104118 -1.1265102,0.7104118 -0.4972882,0 -0.6393706,-0.54803196 -0.6393706,-0.93368406 0,-0.4972883 0.314611,-1.7252858 0.548032,-2.1819791 0.3044622,-0.5886269 0.7611555,-0.9539816 1.1569563,-0.9539816 0.6495194,0 0.7916017,0.8118992 0.7916017,0.8727917 0,0.060892 -0.020297,0.1217849 -0.030446,0.1725286 z m 0,0"
         style="fill:#000000;fill-opacity:1;fill-rule:nonzero;stroke:none" />
      <path
         id="path24"
         d="m 14.729137,-5.1902483 c 0.111636,0 0.284165,0 0.284165,-0.1725286 0,-0.1725285 -0.16238,-0.1725285 -0.284165,-0.1725285 h -4.150835 c -0.111636,0 -0.284164,0 -0.284164,0.1725285 0,0.1725286 0.162379,0.1725286 0.284164,0.1725286 z m 0,0"
         style="fill:#000000;fill-opacity:1;fill-rule:nonzero;stroke:none" />
      <path
         id="path25"
         d="m 18.101056,-8.0521929 c 0,-0.1826774 -0.01015,-0.1928261 -0.202975,-0.1928261 -0.446545,0.4363958 -1.085915,0.4465446 -1.37008,0.4465446 v 0.2537185 c 0.16238,0 0.629222,0 1.004725,-0.2029748 v 3.5622077 c 0,0.2232723 0,0.3146109 -0.690114,0.3146109 h -0.263867 v 0.2537185 c 0.121785,-0.010149 0.984428,-0.030446 1.238146,-0.030446 0.213124,0 1.096064,0.020297 1.248295,0.030446 v -0.2537185 h -0.263867 c -0.700263,0 -0.700263,-0.091339 -0.700263,-0.3146109 z m 0,0"
         style="fill:#000000;fill-opacity:1;fill-rule:nonzero;stroke:none" />
    </g>
    <path
       id="path26"
       d="m -121.42159,10.43031 h -31.96586 V -10.4303 h 31.96586 z"
       style="fill:#ffffff;fill-opacity:1;fill-rule:nonzero;stroke:none"
       transform="matrix(1.3333333,0,0,-1.3333333,373.07333,373.07333)" />
    <g
       id="g26"
       aria-label="a&#10;−1"
       transform="matrix(1.8856,0,0,1.8856,174.82133,380.71867)">
      <path
         id="path27"
         d="M 3.7118048,-3.7620209 C 3.5377886,-4.1349128 3.2477615,-4.4000804 2.8002912,-4.4000804 c -1.1683946,0 -2.4030812,1.4584217 -2.4030812,2.9168434 0,0.93637305 0.54690814,1.59100553 1.3258379,1.59100553 0.1988757,0 0.6960649,-0.04143244 1.292692,-0.74578384 0.082865,0.42261084 0.4308973,0.74578384 0.9115136,0.74578384 0.3480324,0 0.5717676,-0.22373515 0.7374973,-0.54690815 0.1657298,-0.35631894 0.2983136,-0.96123248 0.2983136,-0.98609198 0,-0.099438 -0.091151,-0.099438 -0.1242973,-0.099438 -0.099438,0 -0.1077244,0.041432 -0.1408703,0.1823027 -0.1657298,0.64634598 -0.3480325,1.23468656 -0.7540703,1.23468656 -0.2651676,0 -0.2983136,-0.2568811 -0.2983136,-0.46404327 0,-0.21544867 0.016573,-0.29831354 0.1325838,-0.72921089 C 3.885821,-1.7235451 3.902394,-1.822983 3.9935454,-2.2041614 l 0.3563189,-1.3921298 c 0.074578,-0.2817405 0.074578,-0.2983135 0.074578,-0.339746 0,-0.1657297 -0.1242973,-0.2651675 -0.290027,-0.2651675 -0.2403082,0 -0.3894649,0.2154486 -0.4226105,0.4391838 z m -0.646346,2.5770974 c -0.049719,0.1823028 -0.049719,0.19887573 -0.1988757,0.36460548 -0.4391838,0.55519463 -0.8452216,0.71263788 -1.1269622,0.71263788 -0.4971892,0 -0.6380595,-0.54690814 -0.6380595,-0.93637306 0,-0.4971892 0.323173,-1.7235893 0.5551946,-2.1793461 0.3066,-0.5883406 0.7540704,-0.9612325 1.1518217,-0.9612325 0.646346,0 0.7872163,0.8203622 0.7872163,0.8783677 0,0.058005 -0.016573,0.1160108 -0.033146,0.1657297 z m 0,0"
         style="fill:#000000;fill-opacity:1;fill-rule:nonzero;stroke:none" />
      <path
         id="path28"
         d="m 10.452862,-5.1914399 c 0.116011,0 0.281741,0 0.281741,-0.1657298 0,-0.1823027 -0.157444,-0.1823027 -0.281741,-0.1823027 h -4.15153 c -0.1160108,0 -0.2817405,0 -0.2817405,0.1740162 0,0.1740163 0.1574432,0.1740163 0.2817405,0.1740163 z m 0,0"
         style="fill:#000000;fill-opacity:1;fill-rule:nonzero;stroke:none" />
      <path
         id="path29"
         d="m 13.829606,-8.0585645 c 0,-0.1823027 -0.01657,-0.1905892 -0.207163,-0.1905892 -0.44747,0.4391838 -1.085529,0.4474703 -1.36727,0.4474703 v 0.2485946 c 0.16573,0 0.629773,0 1.010951,-0.1905892 v 3.554903 c 0,0.2320216 0,0.323173 -0.696065,0.323173 h -0.265167 v 0.2485946 c 0.124297,-0.00829 0.977805,-0.02486 1.242973,-0.02486 0.215449,0 1.093816,0.016573 1.242973,0.02486 V -3.865602 H 14.52567 c -0.696064,0 -0.696064,-0.091151 -0.696064,-0.323173 z m 0,0"
         style="fill:#000000;fill-opacity:1;fill-rule:nonzero;stroke:none" />
    </g>
    <path
       id="path30"
       d="m -121.88591,77.21861 h -31.03722 v -17.0327 h 31.03722 z"
       style="fill:#ffffff;fill-opacity:1;fill-rule:nonzero;stroke:none"
       transform="matrix(1.3333333,0,0,-1.3333333,373.07333,373.07333)" />
    <g
       id="g30"
       aria-label="a&#10;−1&#10;b"
       transform="matrix(1.5396,0,0,1.5396,174.292,287.71333)">
      <path
         id="path31"
         d="M 3.715068,-3.7642015 C 3.5425395,-4.1397048 3.248226,-4.4035721 2.8016814,-4.4035721 c -1.167105,0 -2.40525132,1.4614186 -2.40525132,2.9228371 0,0.93368409 0.54803196,1.59335218 1.32948492,1.59335218 0.2029748,0 0.7002631,-0.04059496 1.2990387,-0.75100675 0.071041,0.41609834 0.4262471,0.75100675 0.9032379,0.75100675 0.3450571,0 0.5784782,-0.23342101 0.740858,-0.54803195 0.1623798,-0.36535464 0.2943134,-0.96413033 0.2943134,-0.98442773 0,-0.1014874 -0.091339,-0.1014874 -0.1217848,-0.1014874 -0.1014874,0 -0.1116362,0.040595 -0.1319336,0.1725285 -0.1725286,0.64951939 -0.3552059,1.23814631 -0.7611555,1.23814631 -0.274016,0 -0.3044622,-0.2537185 -0.3044622,-0.4566933 0,-0.22327228 0.020297,-0.29431346 0.1319336,-0.74085801 0.1116361,-0.4160983 0.1319336,-0.5175857 0.2232723,-0.8930891 l 0.3552059,-1.4005261 c 0.071041,-0.274016 0.071041,-0.2943135 0.071041,-0.3349084 0,-0.1725286 -0.1217848,-0.2638673 -0.2841647,-0.2638673 -0.2435697,0 -0.3958008,0.2131236 -0.426247,0.4363958 z m -0.6495193,2.57778 c -0.040595,0.1826773 -0.040595,0.20297477 -0.1928261,0.36535461 -0.4363958,0.54803196 -0.8524941,0.7104118 -1.1265101,0.7104118 -0.4972883,0 -0.6393706,-0.54803196 -0.6393706,-0.93368411 0,-0.4972882 0.3146109,-1.7252858 0.5480319,-2.1819791 0.3044622,-0.5886269 0.7611555,-0.9539815 1.1569564,-0.9539815 0.6495193,0 0.7916017,0.8118992 0.7916017,0.8727916 0,0.060893 -0.020297,0.1217849 -0.030446,0.1725286 z m 0,0"
         style="fill:#000000;fill-opacity:1;fill-rule:nonzero;stroke:none" />
      <path
         id="path32"
         d="m 10.451294,-5.1875622 c 0.111636,0 0.284165,0 0.284165,-0.1725286 0,-0.1725286 -0.16238,-0.1725286 -0.284165,-0.1725286 H 6.3004595 c -0.1116361,0 -0.2841647,0 -0.2841647,0.1725286 0,0.1725286 0.1623799,0.1725286 0.2841647,0.1725286 z m 0,0"
         style="fill:#000000;fill-opacity:1;fill-rule:nonzero;stroke:none" />
      <path
         id="path33"
         d="m 13.82575,-8.0495069 c 0,-0.1826773 -0.01015,-0.1928261 -0.202975,-0.1928261 -0.446544,0.4363959 -1.085915,0.4465446 -1.370079,0.4465446 v 0.2537185 c 0.162379,0 0.629221,0 1.004725,-0.2029748 v 3.5622077 c 0,0.2232723 0,0.3146109 -0.690115,0.3146109 h -0.263867 v 0.2537185 c 0.121785,-0.010149 0.984428,-0.030446 1.238146,-0.030446 0.213124,0 1.096064,0.020298 1.248295,0.030446 v -0.2537185 h -0.263867 c -0.700263,0 -0.700263,-0.091339 -0.700263,-0.3146109 z m 0,0"
         style="fill:#000000;fill-opacity:1;fill-rule:nonzero;stroke:none" />
      <path
         id="path34"
         d="m 18.347014,-6.8088234 c 0,-0.010149 0,-0.1116362 -0.131934,-0.1116362 -0.233421,0 -0.953981,0.08119 -1.217849,0.1014874 -0.08119,0.010149 -0.192826,0.020297 -0.192826,0.2029748 0,0.1217849 0.09134,0.1217849 0.24357,0.1217849 0.476991,0 0.497288,0.071041 0.497288,0.1623798 0,0.071041 -0.09134,0.4160984 -0.142082,0.6190732 l -0.811899,3.2475967 c -0.121785,0.507437 -0.16238,0.6596681 -0.16238,1.014874 0,0.94383285 0.527734,1.56290598 1.268592,1.56290598 1.177254,0 2.405252,-1.49186478 2.405252,-2.92283708 0,-0.9032379 -0.537883,-1.5933522 -1.329485,-1.5933522 -0.456693,0 -0.872792,0.2841647 -1.167105,0.5987757 z m -0.943833,3.7651825 c 0.06089,-0.2131236 0.06089,-0.2334211 0.152231,-0.3450572 0.48714,-0.6495193 0.933684,-0.7916017 1.197551,-0.7916017 0.355206,0 0.629222,0.2943135 0.629222,0.9336841 0,0.5886269 -0.334908,1.7354345 -0.507437,2.1109379 -0.334908,0.66981681 -0.791601,1.02502271 -1.177254,1.02502271 -0.345057,0 -0.669816,-0.26386724 -0.669816,-1.00472521 0,-0.1928261 0,-0.3755034 0.162379,-1.0047253 z m 0,0"
         style="fill:#000000;fill-opacity:1;fill-rule:nonzero;stroke:none" />
    </g>
    <path
       id="path35"
       d="m -193.0567,8.51636 h -26.10011 V -8.51633 h 26.10011 z"
       style="fill:#ffffff;fill-opacity:1;fill-rule:nonzero;stroke:none"
       transform="matrix(1.3333333,0,0,-1.3333333,373.07333,373.07333)" />
    <g
       id="g35"
       aria-label="a&#10;−2"
       transform="matrix(1.5396,0,0,1.5396,85.981333,379.316)">
      <path
         id="path36"
         d="M 3.7138773,-3.7649186 C 3.5413487,-4.140422 3.2470352,-4.4042893 2.8004907,-4.4042893 c -1.1671051,0 -2.40525141,1.4614186 -2.40525141,2.9228371 0,0.93368411 0.54803196,1.59335221 1.32948491,1.59335221 0.2029748,0 0.7002631,-0.04059496 1.2990387,-0.75100676 0.071041,0.41609834 0.4262471,0.75100676 0.9032379,0.75100676 0.3450571,0 0.5784782,-0.23342102 0.740858,-0.54803196 0.1623798,-0.36535464 0.2943135,-0.96413025 0.2943135,-0.98442775 0,-0.1014874 -0.091339,-0.1014874 -0.1217849,-0.1014874 -0.1014874,0 -0.1116362,0.040595 -0.1319336,0.1725286 -0.1725286,0.64951931 -0.3552059,1.23814623 -0.7611555,1.23814623 -0.274016,0 -0.3044622,-0.2537185 -0.3044622,-0.4566933 0,-0.22327228 0.020298,-0.29431346 0.1319336,-0.74085803 0.1116361,-0.4160983 0.1319336,-0.5175857 0.2232723,-0.8930891 l 0.3552059,-1.4005261 c 0.071041,-0.274016 0.071041,-0.2943135 0.071041,-0.3349084 0,-0.1725286 -0.1217848,-0.2638673 -0.2841647,-0.2638673 -0.2435697,0 -0.3958008,0.2131236 -0.4262469,0.4363959 z m -0.6495194,2.5777799 c -0.040595,0.1826773 -0.040595,0.20297479 -0.1928261,0.36535463 -0.4363958,0.54803196 -0.8524941,0.7104118 -1.1265101,0.7104118 -0.4972883,0 -0.6393706,-0.54803196 -0.6393706,-0.93368403 0,-0.4972883 0.3146109,-1.7252858 0.5480319,-2.1819791 0.3044622,-0.5886269 0.7611555,-0.9539816 1.1569564,-0.9539816 0.6495194,0 0.7916017,0.8118992 0.7916017,0.8727916 0,0.060893 -0.020298,0.1217849 -0.030446,0.1725286 z m 0,0"
         style="fill:#000000;fill-opacity:1;fill-rule:nonzero;stroke:none" />
      <path
         id="path37"
         d="m 10.452641,-5.1882794 c 0.111636,0 0.284164,0 0.284164,-0.1725286 0,-0.1725286 -0.16238,-0.1725286 -0.284164,-0.1725286 H 6.3018059 c -0.1116361,0 -0.2841647,0 -0.2841647,0.1725286 0,0.1725286 0.1623799,0.1725286 0.2841647,0.1725286 z m 0,0"
         style="fill:#000000;fill-opacity:1;fill-rule:nonzero;stroke:none" />
      <path
         id="path38"
         d="m 15.014499,-4.8838172 h -0.233421 c -0.0203,0.1522311 -0.09134,0.5683294 -0.182677,0.6292219 -0.06089,0.050744 -0.598776,0.050744 -0.690114,0.050744 h -1.28889 c 0.730709,-0.6495194 0.974279,-0.8524942 1.400526,-1.1772539 0.517585,-0.4059496 0.994576,-0.8423454 0.994576,-1.5020135 0,-0.8423454 -0.740858,-1.3599311 -1.633947,-1.3599311 -0.862643,0 -1.45127,0.6089244 -1.45127,1.248295 0,0.3552059 0.304462,0.3856521 0.375504,0.3856521 0.162379,0 0.365354,-0.1116362 0.365354,-0.3653547 0,-0.1217848 -0.05074,-0.3755033 -0.405949,-0.3755033 0.213123,-0.4871395 0.690114,-0.6393706 1.014874,-0.6393706 0.700263,0 1.055469,0.5378832 1.055469,1.1062126 0,0.6089244 -0.426247,1.0859152 -0.64952,1.3396337 l -1.684691,1.6542446 c -0.07104,0.060892 -0.07104,0.08119 -0.07104,0.274016 h 2.872094 z m 0,0"
         style="fill:#000000;fill-opacity:1;fill-rule:nonzero;stroke:none" />
    </g>
    <path
       id="path39"
       d="m -115.71051,-60.18588 h -43.388 v -17.0327 h 43.388 z"
       style="fill:#ffffff;fill-opacity:1;fill-rule:nonzero;stroke:none"
       transform="matrix(1.3333333,0,0,-1.3333333,373.07333,373.07333)" />
    <g
       id="g39"
       aria-label="a&#10;−1&#10;b&#10;−1"
       transform="matrix(1.5396,0,0,1.5396,166.05733,470.91733)">
      <path
         id="path40"
         d="M 3.7152575,-3.7647698 C 3.5427289,-4.1402732 3.2484154,-4.4041404 2.8018709,-4.4041404 c -1.1671051,0 -2.40525138,1.4614185 -2.40525138,2.9228371 0,0.93368406 0.54803196,1.59335215 1.32948498,1.59335215 0.2029748,0 0.700263,-0.04059496 1.2990387,-0.75100675 0.071041,0.41609834 0.426247,0.75100675 0.9032378,0.75100675 0.3450572,0 0.5784782,-0.23342101 0.740858,-0.54803195 0.1623799,-0.36535464 0.2943135,-0.9641303 0.2943135,-0.9844278 0,-0.1014874 -0.091339,-0.1014874 -0.1217849,-0.1014874 -0.1014874,0 -0.1116361,0.040595 -0.1319336,0.1725286 -0.1725286,0.64951936 -0.3552059,1.23814628 -0.7611555,1.23814628 -0.274016,0 -0.3044622,-0.2537185 -0.3044622,-0.4566933 0,-0.22327228 0.020297,-0.29431346 0.1319336,-0.74085798 0.1116362,-0.4160984 0.1319336,-0.5175858 0.2232723,-0.8930891 L 4.3546281,-3.60239 c 0.071041,-0.2740159 0.071041,-0.2943134 0.071041,-0.3349084 0,-0.1725286 -0.1217849,-0.2638672 -0.2841647,-0.2638672 -0.2435698,0 -0.3958009,0.2131235 -0.4262469,0.4363958 z m -0.6495194,2.5777799 c -0.040595,0.1826774 -0.040595,0.20297484 -0.192826,0.36535468 -0.4363959,0.54803196 -0.8524942,0.7104118 -1.1265102,0.7104118 -0.4972882,0 -0.6393706,-0.54803196 -0.6393706,-0.93368408 0,-0.4972883 0.314611,-1.7252858 0.548032,-2.1819791 0.3044622,-0.5886269 0.7611555,-0.9539815 1.1569563,-0.9539815 0.6495194,0 0.7916017,0.8118992 0.7916017,0.8727916 0,0.060892 -0.020297,0.1217849 -0.030446,0.1725286 z m 0,0"
         style="fill:#000000;fill-opacity:1;fill-rule:nonzero;stroke:none" />
      <path
         id="path41"
         d="m 10.451484,-5.1881306 c 0.111636,0 0.284164,0 0.284164,-0.1725286 0,-0.1725285 -0.16238,-0.1725285 -0.284164,-0.1725285 H 6.300649 c -0.1116362,0 -0.2841647,0 -0.2841647,0.1725285 0,0.1725286 0.1623798,0.1725286 0.2841647,0.1725286 z m 0,0"
         style="fill:#000000;fill-opacity:1;fill-rule:nonzero;stroke:none" />
      <path
         id="path42"
         d="m 13.828477,-8.0500752 c 0,-0.1826774 -0.01015,-0.1928261 -0.202975,-0.1928261 -0.446545,0.4363958 -1.085915,0.4465446 -1.37008,0.4465446 v 0.2537185 c 0.16238,0 0.629222,0 1.004725,-0.2029748 v 3.5622077 c 0,0.2232723 0,0.3146109 -0.690114,0.3146109 h -0.263867 v 0.2537185 c 0.121785,-0.010149 0.984428,-0.030446 1.238146,-0.030446 0.213124,0 1.096064,0.020297 1.248295,0.030446 V -3.8687944 H 14.52874 c -0.700263,0 -0.700263,-0.091339 -0.700263,-0.3146109 z m 0,0"
         style="fill:#000000;fill-opacity:1;fill-rule:nonzero;stroke:none" />
      <path
         id="path43"
         d="m 18.347203,-6.8093918 c 0,-0.010149 0,-0.1116361 -0.131933,-0.1116361 -0.233421,0 -0.953982,0.08119 -1.217849,0.1014874 -0.08119,0.010149 -0.192826,0.020297 -0.192826,0.2029748 0,0.1217849 0.09134,0.1217849 0.24357,0.1217849 0.47699,0 0.497288,0.071041 0.497288,0.1623798 0,0.071041 -0.09134,0.4160983 -0.142083,0.6190731 l -0.811899,3.2475968 c -0.121785,0.507437 -0.16238,0.6596681 -0.16238,1.014874 0,0.94383282 0.527735,1.56290595 1.268593,1.56290595 1.177254,0 2.405251,-1.49186475 2.405251,-2.92283705 0,-0.9032379 -0.537883,-1.5933522 -1.329485,-1.5933522 -0.456693,0 -0.872791,0.2841647 -1.167105,0.5987756 z m -0.943833,3.7651825 c 0.06089,-0.2131235 0.06089,-0.233421 0.152232,-0.3450571 0.487139,-0.6495194 0.933684,-0.7916017 1.197551,-0.7916017 0.355206,0 0.629222,0.2943134 0.629222,0.933684 0,0.588627 -0.334909,1.7354346 -0.507437,2.1109379 -0.334909,0.66981688 -0.791602,1.02502278 -1.177254,1.02502278 -0.345057,0 -0.669817,-0.26386724 -0.669817,-1.00472528 0,-0.192826 0,-0.3755034 0.16238,-1.0047252 z m 0,0"
         style="fill:#000000;fill-opacity:1;fill-rule:nonzero;stroke:none" />
      <path
         id="path44"
         d="m 25.423412,-5.1881306 c 0.111636,0 0.284165,0 0.284165,-0.1725286 0,-0.1725285 -0.16238,-0.1725285 -0.284165,-0.1725285 h -4.150834 c -0.111637,0 -0.284165,0 -0.284165,0.1725285 0,0.1725286 0.16238,0.1725286 0.284165,0.1725286 z m 0,0"
         style="fill:#000000;fill-opacity:1;fill-rule:nonzero;stroke:none" />
      <path
         id="path45"
         d="m 28.800405,-8.0500752 c 0,-0.1826774 -0.01015,-0.1928261 -0.202974,-0.1928261 -0.446545,0.4363958 -1.085916,0.4465446 -1.37008,0.4465446 v 0.2537185 c 0.16238,0 0.629222,0 1.004725,-0.2029748 v 3.5622077 c 0,0.2232723 0,0.3146109 -0.690114,0.3146109 h -0.263868 v 0.2537185 c 0.121785,-0.010149 0.984428,-0.030446 1.238147,-0.030446 0.213123,0 1.096064,0.020297 1.248295,0.030446 v -0.2537185 h -0.263868 c -0.700263,0 -0.700263,-0.091339 -0.700263,-0.3146109 z m 0,0"
         style="fill:#000000;fill-opacity:1;fill-rule:nonzero;stroke:none" />
    </g>
    <path
       id="path46"
       d="m 15.28255,-126.9742 h -30.56507 v -20.86062 h 30.56507 z"
       style="fill:#ffffff;fill-opacity:1;fill-rule:nonzero;stroke:none"
       transform="matrix(1.3333333,0,0,-1.3333333,373.07333,373.07333)" />
    <g
       id="g46"
       aria-label="b&#10;−1"
       transform="matrix(1.8856,0,0,1.8856,358.95867,563.92267)">
      <path
         id="path47"
         d="m 2.3773545,-6.8036257 c 0,-0.00829 0,-0.1077244 -0.1242973,-0.1077244 -0.2320217,0 -0.9612325,0.074578 -1.2181136,0.099438 -0.0828649,0.00829 -0.19058924,0.016573 -0.19058924,0.1988757 0,0.1160108 0.0911514,0.1160108 0.24030814,0.1160108 0.4806162,0 0.4971892,0.074578 0.4971892,0.1740162 0,0.066292 -0.091151,0.4060379 -0.1408703,0.6132001 l -0.8120757,3.2483029 c -0.12429731,0.4971892 -0.16572974,0.6546325 -0.16572974,1.0109514 0,0.94465954 0.53033517,1.55785958 1.26783254,1.55785958 1.1766811,0 2.4030812,-1.48328118 2.4030812,-2.91684348 0,-0.9032271 -0.5303351,-1.5910055 -1.3258379,-1.5910055 -0.4557568,0 -0.8700811,0.2900271 -1.1683947,0.5966271 z m -0.9363731,3.7620651 c 0.066292,-0.2154487 0.066292,-0.2320216 0.1491568,-0.3480325 0.4889027,-0.6463459 0.936373,-0.7955027 1.2015406,-0.7955027 0.356319,0 0.6214865,0.2983135 0.6214865,0.936373 0,0.5883406 -0.3231729,1.7318758 -0.5054757,2.1130542 -0.3314594,0.67120548 -0.7872162,1.02752442 -1.1766811,1.02752442 -0.339746,0 -0.662919,-0.27345407 -0.662919,-1.01095142 0,-0.1823027 0,-0.3728919 0.1574433,-1.0026649 z m 0,0"
         style="fill:#000000;fill-opacity:1;fill-rule:nonzero;stroke:none" />
      <path
         id="path48"
         d="m 9.4643725,-5.1898324 c 0.1160108,0 0.2817406,0 0.2817406,-0.1657297 0,-0.1823027 -0.1574433,-0.1823027 -0.2817406,-0.1823027 h -4.15153 c -0.1160108,0 -0.2817406,0 -0.2817406,0.1740162 0,0.1740162 0.1574433,0.1740162 0.2817406,0.1740162 z m 0,0"
         style="fill:#000000;fill-opacity:1;fill-rule:nonzero;stroke:none" />
      <path
         id="path49"
         d="m 12.839044,-8.0569569 c 0,-0.1823027 -0.01657,-0.1905892 -0.207162,-0.1905892 -0.44747,0.4391838 -1.08553,0.4474703 -1.36727,0.4474703 v 0.2485946 c 0.16573,0 0.629773,0 1.010951,-0.1905892 v 3.554903 c 0,0.2320216 0,0.323173 -0.696065,0.323173 h -0.265167 v 0.2485946 c 0.124297,-0.00829 0.977805,-0.024859 1.242973,-0.024859 0.215448,0 1.093816,0.016573 1.242973,0.024859 v -0.2485946 h -0.265168 c -0.696065,0 -0.696065,-0.091151 -0.696065,-0.323173 z m 0,0"
         style="fill:#000000;fill-opacity:1;fill-rule:nonzero;stroke:none" />
    </g>
    <path
       id="path50"
       d="m -47.00824,-128.88815 h -43.388 v -17.0327 h 43.388 z"
       style="fill:#ffffff;fill-opacity:1;fill-rule:nonzero;stroke:none"
       transform="matrix(1.3333333,0,0,-1.3333333,373.07333,373.07333)" />
    <g
       id="g50"
       aria-label="b&#10;−1&#10;a&#10;−1"
       transform="matrix(1.5396,0,0,1.5396,257.66,562.51867)">
      <path
         id="path51"
         d="m 2.3850554,-6.8092429 c 0,-0.010149 0,-0.1116362 -0.1319336,-0.1116362 -0.2334211,0 -0.9539816,0.08119 -1.2178488,0.1014874 -0.08119,0.010149 -0.1928261,0.020297 -0.1928261,0.2029748 0,0.1217849 0.0913387,0.1217849 0.2435698,0.1217849 0.4769907,0 0.4972882,0.071041 0.4972882,0.1623798 0,0.071041 -0.091339,0.4160984 -0.1420823,0.6190732 l -0.81189924,3.2475968 c -0.12178488,0.507437 -0.16237984,0.6596681 -0.16237984,1.014874 0,0.94383277 0.52773448,1.5629059 1.26859248,1.5629059 1.1772538,0 2.4052514,-1.4918648 2.4052514,-2.9228371 0,-0.9032379 -0.5378832,-1.5933522 -1.329485,-1.5933522 -0.4566932,0 -0.8727916,0.2841648 -1.167105,0.5987757 z m -0.9438328,3.7651825 c 0.060892,-0.2131236 0.060892,-0.233421 0.1522311,-0.3450572 0.4871395,-0.6495193 0.933684,-0.7916017 1.1975513,-0.7916017 0.3552059,0 0.6292218,0.2943135 0.6292218,0.9336841 0,0.5886269 -0.3349084,1.7354345 -0.507437,2.1109379 -0.3349084,0.66981683 -0.7916017,1.02502272 -1.1772538,1.02502272 -0.3450571,0 -0.6698168,-0.26386723 -0.6698168,-1.00472522 0,-0.1928261 0,-0.3755034 0.1623798,-1.0047253 z m 0,0"
         style="fill:#000000;fill-opacity:1;fill-rule:nonzero;stroke:none" />
      <path
         id="path52"
         d="m 9.4612643,-5.1879817 c 0.1116361,0 0.2841647,0 0.2841647,-0.1725286 0,-0.1725286 -0.1623798,-0.1725286 -0.2841647,-0.1725286 H 5.3104297 c -0.1116362,0 -0.2841648,0 -0.2841648,0.1725286 0,0.1725286 0.1623799,0.1725286 0.2841648,0.1725286 z m 0,0"
         style="fill:#000000;fill-opacity:1;fill-rule:nonzero;stroke:none" />
      <path
         id="path53"
         d="m 12.83572,-8.0499264 c 0,-0.1826773 -0.01015,-0.192826 -0.202974,-0.192826 -0.446545,0.4363958 -1.085916,0.4465445 -1.37008,0.4465445 v 0.2537185 c 0.162379,0 0.629222,0 1.004725,-0.2029748 v 3.5622077 c 0,0.2232723 0,0.314611 -0.690114,0.314611 h -0.263868 v 0.2537185 c 0.121785,-0.010149 0.984428,-0.030446 1.238147,-0.030446 0.213123,0 1.096064,0.020298 1.248295,0.030446 v -0.2537185 h -0.263868 c -0.700263,0 -0.700263,-0.091339 -0.700263,-0.314611 z m 0,0"
         style="fill:#000000;fill-opacity:1;fill-rule:nonzero;stroke:none" />
      <path
         id="path54"
         d="m 18.686469,-3.764621 c -0.172529,-0.3755033 -0.466842,-0.6393706 -0.913387,-0.6393706 -1.167105,0 -2.405251,1.4614186 -2.405251,2.9228371 0,0.93368411 0.548032,1.5933522 1.329485,1.5933522 0.202975,0 0.700263,-0.04059496 1.299039,-0.75100675 0.07104,0.41609834 0.426247,0.75100675 0.903237,0.75100675 0.345058,0 0.578479,-0.23342102 0.740858,-0.54803195 0.16238,-0.36535464 0.294314,-0.96413025 0.294314,-0.98442775 0,-0.1014874 -0.09134,-0.1014874 -0.121785,-0.1014874 -0.101487,0 -0.111636,0.040595 -0.131934,0.1725286 -0.172528,0.64951931 -0.355205,1.23814622 -0.761155,1.23814622 -0.274016,0 -0.304462,-0.25371849 -0.304462,-0.45669329 0,-0.22327228 0.0203,-0.29431346 0.131933,-0.74085803 0.111636,-0.4160983 0.131934,-0.5175857 0.223273,-0.8930891 l 0.355206,-1.4005261 c 0.07104,-0.274016 0.07104,-0.2943135 0.07104,-0.3349084 0,-0.1725286 -0.121785,-0.2638673 -0.284165,-0.2638673 -0.24357,0 -0.395801,0.2131236 -0.426247,0.4363958 z m -0.649519,2.57778 c -0.04059,0.1826773 -0.04059,0.20297479 -0.192827,0.36535463 -0.436395,0.54803196 -0.852494,0.71041179 -1.12651,0.71041179 -0.497288,0 -0.63937,-0.54803195 -0.63937,-0.93368402 0,-0.4972883 0.314611,-1.7252858 0.548032,-2.1819791 0.304462,-0.588627 0.761155,-0.9539816 1.156956,-0.9539816 0.649519,0 0.791602,0.8118992 0.791602,0.8727916 0,0.060893 -0.0203,0.1217849 -0.03045,0.1725286 z m 0,0"
         style="fill:#000000;fill-opacity:1;fill-rule:nonzero;stroke:none" />
      <path
         id="path55"
         d="m 25.422695,-5.1879817 c 0.111636,0 0.284165,0 0.284165,-0.1725286 0,-0.1725286 -0.16238,-0.1725286 -0.284165,-0.1725286 H 21.27186 c -0.111636,0 -0.284164,0 -0.284164,0.1725286 0,0.1725286 0.16238,0.1725286 0.284164,0.1725286 z m 0,0"
         style="fill:#000000;fill-opacity:1;fill-rule:nonzero;stroke:none" />
      <path
         id="path56"
         d="m 28.797151,-8.0499264 c 0,-0.1826773 -0.01015,-0.192826 -0.202975,-0.192826 -0.446544,0.4363958 -1.085915,0.4465445 -1.37008,0.4465445 v 0.2537185 c 0.16238,0 0.629222,0 1.004726,-0.2029748 v 3.5622077 c 0,0.2232723 0,0.314611 -0.690115,0.314611 H 27.27484 v 0.2537185 c 0.121785,-0.010149 0.984428,-0.030446 1.238146,-0.030446 0.213124,0 1.096064,0.020298 1.248295,0.030446 v -0.2537185 h -0.263867 c -0.700263,0 -0.700263,-0.091339 -0.700263,-0.314611 z m 0,0"
         style="fill:#000000;fill-opacity:1;fill-rule:nonzero;stroke:none" />
    </g>
    <path
       id="path57"
       d="m 12.47818,-197.59041 h -24.95633 v -17.0327 h 24.95633 z"
       style="fill:#ffffff;fill-opacity:1;fill-rule:nonzero;stroke:none"
       transform="matrix(1.3333333,0,0,-1.3333333,373.07333,373.07333)" />
    <g
       id="g57"
       aria-label="b&#10;−2"
       transform="matrix(1.5396,0,0,1.5396,361.54933,654.12133)">
      <path
         id="path58"
         d="m 2.3858943,-6.8099601 c 0,-0.010149 0,-0.1116361 -0.1319336,-0.1116361 -0.233421,0 -0.9539815,0.08119 -1.2178488,0.1014874 -0.0811899,0.010149 -0.19282604,0.020297 -0.19282604,0.2029748 0,0.1217848 0.0913387,0.1217848 0.24356974,0.1217848 0.4769908,0 0.4972883,0.071041 0.4972883,0.1623799 0,0.071041 -0.091339,0.4160983 -0.1420824,0.6190731 l -0.81189917,3.2475968 c -0.12178488,0.507437 -0.16237984,0.6596681 -0.16237984,1.014874 0,0.94383279 0.52773447,1.56290593 1.26859251,1.56290593 1.1772538,0 2.4052513,-1.49186473 2.4052513,-2.92283713 0,-0.9032378 -0.5378832,-1.5933521 -1.3294849,-1.5933521 -0.4566933,0 -0.8727916,0.2841647 -1.1671051,0.5987756 z m -0.9438328,3.7651825 c 0.060892,-0.2131235 0.060892,-0.233421 0.1522311,-0.3450572 0.4871395,-0.6495193 0.9336841,-0.7916017 1.1975513,-0.7916017 0.3552059,0 0.6292219,0.2943135 0.6292219,0.9336841 0,0.5886269 -0.3349084,1.7354345 -0.507437,2.1109379 -0.3349084,0.66981685 -0.7916017,1.02502275 -1.1772538,1.02502275 -0.3450572,0 -0.6698169,-0.26386724 -0.6698169,-1.00472525 0,-0.1928261 0,-0.3755034 0.1623799,-1.0047253 z m 0,0"
         style="fill:#000000;fill-opacity:1;fill-rule:nonzero;stroke:none" />
      <path
         id="path59"
         d="m 9.4621033,-5.1886989 c 0.1116361,0 0.2841647,0 0.2841647,-0.1725286 0,-0.1725286 -0.1623799,-0.1725286 -0.2841647,-0.1725286 H 5.3112686 c -0.1116361,0 -0.2841647,0 -0.2841647,0.1725286 0,0.1725286 0.1623798,0.1725286 0.2841647,0.1725286 z m 0,0"
         style="fill:#000000;fill-opacity:1;fill-rule:nonzero;stroke:none" />
      <path
         id="path60"
         d="m 14.023962,-4.8842367 h -0.233421 c -0.0203,0.1522311 -0.09134,0.5683294 -0.182677,0.6292219 -0.06089,0.050744 -0.598776,0.050744 -0.690115,0.050744 h -1.28889 c 0.73071,-0.6495194 0.974279,-0.8524942 1.400526,-1.1772539 0.517586,-0.4059496 0.994577,-0.8423454 0.994577,-1.5020135 0,-0.8423454 -0.740858,-1.3599311 -1.633947,-1.3599311 -0.862643,0 -1.45127,0.6089244 -1.45127,1.248295 0,0.3552059 0.304462,0.3856521 0.375503,0.3856521 0.16238,0 0.365355,-0.1116361 0.365355,-0.3653546 0,-0.1217849 -0.05074,-0.3755034 -0.40595,-0.3755034 0.213124,-0.4871395 0.690115,-0.6393706 1.014874,-0.6393706 0.700263,0 1.055469,0.5378832 1.055469,1.1062126 0,0.6089244 -0.426247,1.0859152 -0.649519,1.3396337 l -1.684691,1.6542446 c -0.07104,0.060892 -0.07104,0.08119 -0.07104,0.274016 h 2.872093 z m 0,0"
         style="fill:#000000;fill-opacity:1;fill-rule:nonzero;stroke:none" />
    </g>
    <path
       id="path61"
       d="M 84.22086,-128.88815 H 53.18364 v -17.0327 h 31.03722 z"
       style="fill:#ffffff;fill-opacity:1;fill-rule:nonzero;stroke:none"
       transform="matrix(1.3333333,0,0,-1.3333333,373.07333,373.07333)" />
    <g
       id="g61"
       aria-label="b&#10;−1&#10;a"
       transform="matrix(1.5396,0,0,1.5396,449.09733,562.51867)">
      <path
         id="path62"
         d="m 2.3851636,-6.8092429 c 0,-0.010149 0,-0.1116362 -0.1319336,-0.1116362 -0.233421,0 -0.9539815,0.08119 -1.2178488,0.1014874 -0.0811899,0.010149 -0.19282604,0.020297 -0.19282604,0.2029748 0,0.1217849 0.0913387,0.1217849 0.24356974,0.1217849 0.4769908,0 0.4972883,0.071041 0.4972883,0.1623798 0,0.071041 -0.091339,0.4160984 -0.1420824,0.6190732 l -0.81189918,3.2475968 c -0.12178488,0.507437 -0.16237984,0.6596681 -0.16237984,1.014874 0,0.94383277 0.52773447,1.5629059 1.26859252,1.5629059 1.1772538,0 2.4052513,-1.4918648 2.4052513,-2.9228371 0,-0.9032379 -0.5378832,-1.5933522 -1.3294849,-1.5933522 -0.4566933,0 -0.8727916,0.2841648 -1.1671051,0.5987757 z m -0.9438328,3.7651825 c 0.060893,-0.2131236 0.060893,-0.233421 0.1522311,-0.3450572 0.4871395,-0.6495193 0.9336841,-0.7916017 1.1975513,-0.7916017 0.3552059,0 0.6292219,0.2943135 0.6292219,0.9336841 0,0.5886269 -0.3349084,1.7354345 -0.507437,2.1109379 -0.3349084,0.66981683 -0.7916017,1.02502272 -1.1772538,1.02502272 -0.3450572,0 -0.6698169,-0.26386723 -0.6698169,-1.00472522 0,-0.1928261 0,-0.3755034 0.1623799,-1.0047253 z m 0,0"
         style="fill:#000000;fill-opacity:1;fill-rule:nonzero;stroke:none" />
      <path
         id="path63"
         d="m 9.4613725,-5.1879817 c 0.1116362,0 0.2841648,0 0.2841648,-0.1725286 0,-0.1725286 -0.1623799,-0.1725286 -0.2841648,-0.1725286 H 5.3105379 c -0.1116361,0 -0.2841647,0 -0.2841647,0.1725286 0,0.1725286 0.1623798,0.1725286 0.2841647,0.1725286 z m 0,0"
         style="fill:#000000;fill-opacity:1;fill-rule:nonzero;stroke:none" />
      <path
         id="path64"
         d="m 12.835829,-8.0499264 c 0,-0.1826773 -0.01015,-0.192826 -0.202975,-0.192826 -0.446545,0.4363958 -1.085915,0.4465445 -1.37008,0.4465445 v 0.2537185 c 0.16238,0 0.629222,0 1.004725,-0.2029748 v 3.5622077 c 0,0.2232723 0,0.314611 -0.690114,0.314611 h -0.263867 v 0.2537185 c 0.121784,-0.010149 0.984427,-0.030446 1.238146,-0.030446 0.213123,0 1.096064,0.020298 1.248295,0.030446 v -0.2537185 h -0.263867 c -0.700263,0 -0.700263,-0.091339 -0.700263,-0.314611 z m 0,0"
         style="fill:#000000;fill-opacity:1;fill-rule:nonzero;stroke:none" />
      <path
         id="path65"
         d="m 18.686577,-3.764621 c -0.172528,-0.3755033 -0.466842,-0.6393706 -0.913386,-0.6393706 -1.167106,0 -2.405252,1.4614186 -2.405252,2.9228371 0,0.93368411 0.548032,1.5933522 1.329485,1.5933522 0.202975,0 0.700263,-0.04059496 1.299039,-0.75100675 0.07104,0.41609834 0.426247,0.75100675 0.903238,0.75100675 0.345057,0 0.578478,-0.23342102 0.740858,-0.54803195 0.16238,-0.36535464 0.294313,-0.96413025 0.294313,-0.98442775 0,-0.1014874 -0.09134,-0.1014874 -0.121785,-0.1014874 -0.101487,0 -0.111636,0.040595 -0.131933,0.1725286 -0.172529,0.64951931 -0.355206,1.23814622 -0.761156,1.23814622 -0.274016,0 -0.304462,-0.25371849 -0.304462,-0.45669329 0,-0.22327228 0.0203,-0.29431346 0.131934,-0.74085803 0.111636,-0.4160983 0.131933,-0.5175857 0.223272,-0.8930891 l 0.355206,-1.4005261 c 0.07104,-0.274016 0.07104,-0.2943135 0.07104,-0.3349084 0,-0.1725286 -0.121785,-0.2638673 -0.284165,-0.2638673 -0.24357,0 -0.395801,0.2131236 -0.426247,0.4363958 z m -0.649519,2.57778 c -0.04059,0.1826773 -0.04059,0.20297479 -0.192826,0.36535463 -0.436396,0.54803196 -0.852494,0.71041179 -1.12651,0.71041179 -0.497289,0 -0.639371,-0.54803195 -0.639371,-0.93368402 0,-0.4972883 0.314611,-1.7252858 0.548032,-2.1819791 0.304462,-0.588627 0.761155,-0.9539816 1.156956,-0.9539816 0.64952,0 0.791602,0.8118992 0.791602,0.8727916 0,0.060893 -0.0203,0.1217849 -0.03045,0.1725286 z m 0,0"
         style="fill:#000000;fill-opacity:1;fill-rule:nonzero;stroke:none" />
    </g>
  </g>
</svg>
